<svg xmlns="http://www.w3.org/2000/svg" viewBox="0 0 3000 3000" width="3000" height="3000"><g transform="translate(2029.1999999999998 1760.3999999999999) rotate(0.0 399.60000000000014 353.4) scale(1.1989396764723093 1.198386552570139)"><svg width="666.589" height="589.793" viewBox="0 0 666.589 589.793"><path d="m571.409 180.834 15.826 41.886c-11.106-29.394-30.789-56.059-59.138-77.421-13.468-10.149-28.205-18.513-43.864-25.223L468.407 78.19c15.66 6.71 30.396 15.074 43.864 25.223 28.349 21.363 48.032 48.028 59.138 77.421" fill="#111"/><path d="M587.235 223.72c-.404 0-.784-.247-.936-.647-11.449-30.302-31.234-56.2-58.804-76.976-13.058-9.839-27.746-18.285-43.656-25.103a1.003 1.003 0 0 1-.542-.565l-15.826-41.886a1 1 0 0 1 1.329-1.273c16.061 6.882 30.889 15.409 44.072 25.343 27.877 21.007 47.887 47.208 59.472 77.866l15.81 41.842.017.044a1 1 0 0 1-.936 1.354zM485.018 119.324c15.908 6.852 30.602 15.32 43.681 25.175 20.467 15.423 36.693 33.644 48.458 54.375l-6.684-17.688c-11.448-30.301-31.232-56.199-58.804-76.976-12.461-9.391-26.41-17.512-41.49-24.161l14.839 39.274z" fill="#111"/><path d="m468.407 78.19 15.826 41.886c-97.334-41.866-230.241-18.134-319.174 63.011-73.156 66.75-96.892 154.398-69.879 225.893l-15.826-41.886c-27.013-71.494-3.277-159.142 69.879-225.893 88.932-81.145 221.84-104.877 319.174-63.011" fill="#b0c3ff"/><g fill="#111"><path d="M95.18 409.98c-.404 0-.784-.247-.936-.647l-15.826-41.886c-13.555-35.874-14.47-75.767-2.646-115.365 12.137-40.648 37.306-79.246 72.787-111.62 42.75-39.007 98.479-66.665 156.922-77.878 57.602-11.054 115.604-5.837 163.321 14.687a1 1 0 0 1 .54.565l15.826 41.886a1 1 0 0 1-1.331 1.272c-99.735-42.898-230.544-17.061-318.104 62.832-70.893 64.685-97.568 150.823-69.617 224.8a1 1 0 0 1-.936 1.354zM364.077 58.559c-75.843 0-154.907 29.308-214.17 83.381-70.893 64.685-97.568 150.823-69.617 224.8l6.721 17.787c-6.085-29.025-4.571-59.881 4.588-90.559 12.137-40.648 37.306-79.246 72.787-111.62 42.75-39.007 98.479-66.665 156.922-77.878 56.738-10.887 113.864-5.99 161.164 13.772l-14.85-39.301c-32.13-13.752-67.474-20.383-103.545-20.383zm272.03 97.753 15.826 41.886c26.532 70.221 14.313 152.778-35.864 225.649l-15.826-41.886c50.177-72.872 62.396-155.428 35.864-225.649"/><path d="M616.069 424.848a1 1 0 0 1-.935-.647l-15.826-41.886a.998.998 0 0 1 .112-.92c49.514-71.908 62.545-153.818 35.752-224.729a1 1 0 1 1 1.871-.707l15.826 41.886c27.027 71.532 13.915 154.114-35.977 226.571a1.002 1.002 0 0 1-.823.433zm-14.706-42.75 14.964 39.603c48.62-71.526 61.268-152.759 34.671-223.149l-5.567-14.735c14.664 64.421-.767 135.174-44.067 198.281z"/></g><path d="M561.438 58.552c103.513 78.003 115.505 212.02 38.805 323.41l-57.242-22.501c60.754-88.205 51.23-194.286-30.73-256.048-13.468-10.149-28.205-18.513-43.864-25.223l37.669-51.568c19.757 8.506 38.349 19.11 55.362 31.929z" fill="#3658c1"/><path d="M600.243 382.962a.998.998 0 0 1-.366-.069l-57.242-22.501a1.002 1.002 0 0 1-.457-1.498c61.856-89.805 49.312-194.533-30.508-254.681-13.056-9.838-27.744-18.284-43.656-25.103a1.002 1.002 0 0 1-.414-1.509l37.669-51.568a.998.998 0 0 1 1.203-.329c20.181 8.688 38.876 19.471 55.568 32.049 25.43 19.163 45.88 42.067 60.784 68.078 14.409 25.146 23.355 52.666 26.59 81.796 6.456 58.134-10.715 120.249-48.348 174.902a.996.996 0 0 1-.823.433zm-55.707-23.972 55.333 21.75c77.696-113.424 61.693-245.487-39.032-321.39-16.363-12.33-34.671-22.923-54.425-31.493l-36.459 49.912c15.617 6.793 30.053 15.149 42.92 24.846 80.415 60.597 93.356 165.872 31.663 256.375z" fill="#111"/><path d="m400.459 526.757 15.826 41.886c-109.15 35.527-228.688 24.697-311.136-37.431-35.795-26.973-60.646-60.643-74.67-97.759l-15.826-41.886c14.024 37.116 38.875 70.786 74.67 97.759 82.447 62.129 201.986 72.958 311.136 37.431" fill="#b0c3ff"/><path d="M291.344 589.789c-13.736 0-27.346-.746-40.751-2.248-55.602-6.23-106.104-25.434-146.045-55.531-35.159-26.494-60.394-59.535-75.004-98.204L13.718 391.92a1 1 0 1 1 1.871-.707c14.476 38.31 39.485 71.051 74.336 97.313 50.031 37.701 116.042 57.26 186.236 57.263 40.688 0 82.772-6.568 123.988-19.983a1.002 1.002 0 0 1 1.245.598l15.826 41.886a.999.999 0 0 1-.626 1.305c-41.069 13.367-83.704 20.193-125.251 20.195zM25.868 418.417l5.548 14.682c14.475 38.31 39.484 71.051 74.336 97.313 78.799 59.379 197.195 73.757 309.228 37.603l-15.118-40.013c-54.374 17.562-111.441 23.665-165.094 17.653-55.602-6.23-106.104-25.434-146.045-55.531-26.838-20.225-47.893-44.261-62.854-71.707z" fill="#111"/><path d="M506.076 26.622 468.407 78.19c-97.334-41.866-230.241-18.134-319.174 63.011-103.222 94.183-108.055 229.971-10.766 303.284 65.28 49.192 159.929 57.711 246.347 29.566l15.645 52.706c-109.15 35.527-228.688 24.697-311.136-37.431-122.873-92.593-116.798-264.093 13.569-383.045C215.21 3.799 383.159-26.221 506.076 26.622z" fill="#fff"/><path d="M275.518 547.903c-13.736 0-27.346-.746-40.751-2.248-55.602-6.23-106.104-25.434-146.045-55.531C34.719 449.43 3.298 391.241.247 326.277c-3.655-77.815 33.512-158.27 101.971-220.734 27.54-25.128 58.94-46.417 93.33-63.272A416.625 416.625 0 0 1 300.32 7.223C373.049-6.744 446.263-.181 506.47 25.704a1 1 0 0 1 .413 1.509l-37.669 51.568a1.004 1.004 0 0 1-1.203.329c-99.735-42.898-230.545-17.062-318.104 62.832-53.817 49.105-83.038 112.301-80.169 173.382 2.391 50.888 27.013 96.475 69.331 128.363 62.496 47.096 156.542 58.367 245.437 29.414a1.004 1.004 0 0 1 1.268.667l15.645 52.706a1 1 0 0 1-.649 1.235c-41.069 13.367-83.704 20.194-125.251 20.195zM374.36 1.589c-95.887 0-195.864 37.063-270.794 105.431C35.548 169.082-1.382 248.964 2.244 326.183c3.023 64.359 34.162 122.015 87.681 162.344 78.814 59.392 197.252 73.759 309.298 37.58l-15.075-50.788c-43.013 13.86-88.129 18.684-130.545 13.944-44.065-4.921-84.087-20.13-115.737-43.979-42.803-32.253-67.706-78.375-70.125-129.867-2.897-61.678 26.56-125.446 80.818-174.954 42.75-39.007 98.479-66.665 156.922-77.878 57.305-10.996 115.011-5.89 162.588 14.374l36.458-49.91c-40.42-17.176-84.839-25.46-130.167-25.46z" fill="#111"/><path d="M600.243 381.962c-14.362 20.854-31.833 40.891-52.373 59.634-42.915 39.157-93.916 67.72-147.41 85.161l-15.645-52.706c42.381-13.796 82.775-36.372 116.736-67.359 16.264-14.84 30.062-30.714 41.45-47.231z" fill="#b0c3ff"/><path d="M400.459 527.757a1.004 1.004 0 0 1-.959-.716l-15.645-52.706a1 1 0 0 1 .649-1.235c43.511-14.164 83.752-37.383 116.372-67.147 15.841-14.455 29.736-30.288 41.3-47.06a1 1 0 0 1 1.189-.363l57.242 22.501a1.003 1.003 0 0 1 .457 1.498c-14.609 21.214-32.28 41.335-52.522 59.804-41.492 37.86-92.592 67.382-147.774 85.375a1.025 1.025 0 0 1-.31.049zm-14.409-53.059 15.075 50.788c54.541-17.934 105.03-47.184 146.07-84.63 19.799-18.066 37.124-37.718 51.507-58.426l-55.33-21.75c-11.56 16.655-25.399 32.379-41.147 46.749-32.596 29.742-72.752 52.99-116.175 67.268z" fill="#111"/><path d="m600.243 381.962 15.826 41.886c-14.362 20.854-31.833 40.891-52.373 59.634-42.915 39.157-93.916 67.72-147.41 85.161l-15.826-41.886c53.494-17.442 104.495-46.004 147.41-85.161 20.541-18.742 38.012-38.78 52.373-59.634" fill="#3658c1"/><path d="M416.285 569.643c-.405 0-.785-.248-.936-.646l-15.826-41.886a.999.999 0 0 1 .626-1.305c54.913-17.905 105.761-47.28 147.046-84.949 20.13-18.367 37.7-38.374 52.224-59.462a.998.998 0 0 1 1.758.214l15.826 41.886a1 1 0 0 1-.112.921c-14.608 21.212-32.279 41.333-52.523 59.804-41.493 37.86-92.592 67.382-147.773 85.375a1.013 1.013 0 0 1-.31.049zm-14.521-42.261 15.119 40.013c54.566-17.932 105.079-47.189 146.138-84.652 19.993-18.243 37.463-38.103 51.927-59.031l-14.968-39.615c-14.396 20.638-31.693 40.224-51.437 58.237-41.242 37.631-91.979 67.026-146.779 85.049z" fill="#111"/></svg></g><g transform="translate(627.6 619.1999999999999) rotate(-2.5670984131150196 1029.0 777.6000000000001) scale(1.200006297409141 1.2000611142234097)"><svg width="1714.991" height="1295.934" viewBox="0 0 1714.991 1295.934"><linearGradient id="a" gradientUnits="userSpaceOnUse" x1="730.151" x2="1037.889" y1="1178.13" y2="80.929"><stop offset="0" stop-color="#111"/><stop offset=".46" stop-color="#3658c1"/><stop offset=".716" stop-color="#3658c1"/><stop offset="1" stop-color="#b0c3ff"/></linearGradient><path d="m1690.226 229.26-23.1-20.381c20.647 18.214 29.355 48.673 20.044 80.717l-264.815 911.394c-13.616 46.862-60.627 79.421-105.066 72.68L60.461 1083.03a69.012 69.012 0 0 1-35.677-16.353l23.1 20.38a69 69 0 0 0 35.677 16.353l1256.829 190.64c44.439 6.741 91.45-25.818 105.067-72.68l264.813-911.393c9.311-32.044.603-62.504-20.044-80.717z" fill="url(#a)"/><path d="M1352.119 1295.928a79.1 79.1 0 0 1-11.878-.889L83.413 1104.4a70.408 70.408 0 0 1-36.189-16.592l-23.1-20.381a1 1 0 0 1 1.323-1.5 68.406 68.406 0 0 0 35.166 16.114l1256.828 190.641c43.856 6.65 90.494-25.633 103.957-71.971l264.812-911.394c8.884-30.572 1.317-61.107-19.745-79.688a1 1 0 1 1 1.322-1.5l23.1 20.38c21.65 19.1 29.445 50.421 20.343 81.746l-264.811 911.393c-12.519 43.103-53.241 74.278-94.3 74.28zM37.646 1076.69l10.9 9.617a68.419 68.419 0 0 0 35.166 16.115l1256.829 190.64c43.849 6.651 90.492-25.633 103.957-71.971L1709.31 309.7c8.883-30.573 1.317-61.108-19.746-79.688l-10.807-9.534c13.059 18.852 16.715 44.125 9.37 69.4l-264.812 911.394c-12.523 43.1-53.241 74.277-94.3 74.279a79.081 79.081 0 0 1-11.876-.889L60.311 1084.019a72.579 72.579 0 0 1-22.665-7.329z" fill="#111"/><path d="M1631.424 192.522c44.439 6.741 69.359 50.212 55.743 97.074l-264.811 911.394c-13.617 46.862-60.628 79.421-105.067 72.68L60.46 1083.03c-44.392-6.73-69.36-50.211-55.743-97.073L269.528 74.564C283.144 27.7 330.2-4.852 374.6 1.882z" fill="#b0c3ff"/><path d="M1329.015 1275.548a79.213 79.213 0 0 1-11.876-.889L60.31 1084.019c-20.506-3.111-37.768-14.159-48.6-31.111-12.01-18.787-14.91-43.291-7.953-67.23L268.568 74.285C282.3 27.019 329.937-5.9 374.745.893l1256.828 190.64c20.52 3.113 37.784 14.158 48.614 31.1 12.005 18.781 14.9 43.29 7.94 67.24l-264.812 911.393c-12.523 43.105-53.241 74.282-94.3 74.282zM362.842 2c-40.2 0-80.072 30.573-92.353 72.841L5.677 986.236c-6.795 23.385-3.983 47.294 7.715 65.595 10.52 16.459 27.29 27.187 47.218 30.21l1256.829 190.641c43.852 6.65 90.492-25.634 103.956-71.972l264.812-911.392c6.8-23.4 3.99-47.31-7.7-65.606-10.516-16.451-27.289-27.177-47.23-30.2L374.446 2.871A77.3 77.3 0 0 0 362.842 2z" fill="#111"/><path d="M1592 234.11 387.523 51.41c-33-5.006-67.94 19.167-78.061 54L58.454 969.3c-10.122 34.837 8.4 67.169 41.4 72.175l1204.479 182.7c33 5.006 67.955-19.215 78.077-54.051l251.008-863.885C1643.54 271.4 1625 239.115 1592 234.11z" fill="#fff"/><g fill="#111"><path d="M1313.036 1225.82a59.024 59.024 0 0 1-8.853-.662l-1204.478-182.7a51.46 51.46 0 0 1-36.273-23.22c-8.97-14.033-11.135-32.338-5.938-50.222L308.5 105.131c10.238-35.236 45.754-59.778 79.171-54.71l1204.48 182.7a51.491 51.491 0 0 1 36.3 23.226c8.958 14.015 11.119 32.3 5.928 50.165L1383.371 1170.4c-9.345 32.158-39.714 55.42-70.335 55.42zM378.786 51.756c-29.753 0-59.271 22.638-68.363 53.933L59.414 969.574c-5.035 17.33-2.957 35.039 5.7 48.587a49.49 49.49 0 0 0 34.888 22.32l1204.479 182.7c32.449 4.923 66.99-19 76.967-53.341l251.008-863.885c5.029-17.312 2.955-35-5.694-48.53a49.514 49.514 0 0 0-34.913-22.326L387.373 52.4a57.185 57.185 0 0 0-8.587-.644zM163.607 523.319c-5.509-.836-11.339 3.158-13.028 8.971s1.411 11.214 6.92 12.05c5.461.828 11.3-3.214 12.994-9.03s-1.425-11.163-6.886-11.991"/><path d="M158.929 545.447a10.616 10.616 0 0 1-1.58-.118 9.423 9.423 0 0 1-6.639-4.257 11.07 11.07 0 0 1-1.091-9.061c1.815-6.245 8.158-10.588 14.138-9.681a9.385 9.385 0 0 1 6.612 4.241 11.016 11.016 0 0 1 1.084 9.018c-1.662 5.721-7.069 9.858-12.524 9.858zm3.2-21.239c-4.607 0-9.18 3.51-10.589 8.361a9.076 9.076 0 0 0 .86 7.431 7.447 7.447 0 0 0 5.254 3.356c5 .758 10.331-2.974 11.884-8.32a9.021 9.021 0 0 0-.849-7.383 7.412 7.412 0 0 0-5.227-3.341 8.973 8.973 0 0 0-1.333-.104z"/></g></svg></g><g transform="translate(776.4 717.6) rotate(0.0 847.8 645.0) scale(1.1995585488709037 1.1998861503373632)"><svg width="1413.52" height="1075.102" viewBox="0 0 1413.52 1075.102"><path d="m217.745 123.503-60.103 45.914 14.584 1.539-11.594 47.933 20.647 2.177 8.893-36.766 25.097 2.647-8.894 36.767 20.645 2.177 11.594-47.933 14.538 1.534z" fill="#b0c3ff"/><path d="M227.021 226.892c-.035 0-.07-.002-.106-.005l-20.645-2.178a1 1 0 0 1-.867-1.23l8.625-35.657-23.09-2.435-8.688 35.915a.997.997 0 0 1-1.077.759l-20.647-2.178a1 1 0 0 1-.867-1.23l11.327-46.823-13.449-1.418a1 1 0 0 1-.502-1.789l60.103-45.915a1 1 0 0 1 1.452.26l35.407 55.989a1 1 0 0 1-.95 1.53l-13.667-1.442-11.388 47.082c-.11.452-.515.765-.971.765zm-19.405-4.052 18.638 1.966 11.388-47.082a1.01 1.01 0 0 1 1.077-.76l12.484 1.317-33.719-53.32-57.238 43.726 12.085 1.274a1 1 0 0 1 .867 1.23l-11.327 46.823 18.641 1.966 8.688-35.915a1.013 1.013 0 0 1 1.077-.759l25.097 2.647a1 1 0 0 1 .867 1.23z" fill="#111"/><path d="m146.336 337.619-22.586-2.382-9.357 38.682 22.587 2.382z" fill="#b0c3ff"/><path d="M136.981 377.301c-.035 0-.07-.002-.106-.005l-22.587-2.382a1 1 0 0 1-.867-1.23l9.357-38.682a1.008 1.008 0 0 1 1.077-.759l22.586 2.382a1 1 0 0 1 .867 1.229l-9.356 38.682a1 1 0 0 1-.971.765zm-21.348-4.257 20.581 2.17 8.882-36.721-20.58-2.17z" fill="#111"/><path d="m180.507 325.233-22.587-2.383-13.128 54.275 22.586 2.383z" fill="#b0c3ff"/><path d="M167.38 380.508c-.035 0-.07-.002-.106-.005l-22.587-2.382a1 1 0 0 1-.867-1.23l13.128-54.274c.119-.487.58-.803 1.077-.76l22.587 2.382a1 1 0 0 1 .867 1.23l-13.128 54.274a1 1 0 0 1-.971.765zm-21.348-4.257 20.581 2.17 12.654-52.314-20.581-2.17z" fill="#111"/><path d="m215.31 310.439-22.587-2.382-17.483 72.28 22.586 2.383z" fill="#b0c3ff"/><path d="M197.827 383.72c-.035 0-.07-.002-.106-.005l-22.586-2.383a1 1 0 0 1-.867-1.23l17.484-72.28a1.01 1.01 0 0 1 1.077-.759l22.586 2.382a1 1 0 0 1 .867 1.23l-17.484 72.28c-.11.452-.515.765-.971.765zm-21.347-4.257 20.58 2.171 17.01-70.319-20.58-2.17-17.01 70.319z" fill="#111"/><path d="m122.037 460.556-27.889-2.942-16.231 67.101 83.433 8.801 13.664-56.486-43.707-4.61z" fill="#b0c3ff"/><path d="M161.351 534.516c-.035 0-.07-.002-.106-.005l-83.433-8.801a1 1 0 0 1-.867-1.23l16.231-67.101a1.008 1.008 0 0 1 1.077-.759l27.889 2.941a1 1 0 0 1 .683.379l9.009 11.53 43.284 4.566a1 1 0 0 1 .867 1.23l-13.663 56.485a1 1 0 0 1-.971.765zm-82.194-10.675 81.427 8.589 13.189-54.524-42.571-4.49a1 1 0 0 1-.683-.379l-9.009-11.53-26.596-2.805-15.757 65.14z" fill="#111"/><path d="M83.99 676.551c-5.254-.554-9.708-3.912-11.413-9.311-2.661-8.276 2.094-18.297 10.638-22.296 2.954-1.407 5.968-1.909 8.758-1.614 5.243.553 9.689 3.913 11.425 9.315 2.659 8.276-2.143 18.292-10.638 22.296-2.954 1.407-5.975 1.905-8.77 1.61m18.428-63.418-4.707 9.819c-.258-.033-.52-.063-.779-.091-3.913-.413-8.022-.121-12.138.894l-2.986-9.34-14.435 6.884 2.949 9.286a45.27 45.27 0 0 0-10.014 10.085l-8.84-3.406-7.071 14.78 8.886 3.411c-1.142 4.318-1.632 8.959-1.2 13.39l-9.601 4.556 4.471 14.039 9.589-4.507a29.213 29.213 0 0 0 8.283 8.919l-4.646 9.775 13.377 5.125 4.704-9.819c.274.034.545.066.818.095 3.859.407 7.945.155 12.102-.898l2.984 9.34 14.425-6.835-2.937-9.335c3.845-2.846 7.242-6.252 9.968-10.092l8.885 3.414 7.071-14.78-8.885-3.414c1.166-4.416 1.632-8.957 1.199-13.388l9.599-4.559-4.518-14.041-9.54 4.512c-2.194-3.584-5.005-6.615-8.344-8.876l4.707-9.819-13.377-5.125" fill="#b0c3ff"/><path d="M73.557 707.752a.993.993 0 0 1-.357-.066l-13.377-5.125a.998.998 0 0 1-.545-1.363l4.289-9.023a30.123 30.123 0 0 1-7.403-7.958l-8.783 4.128a.998.998 0 0 1-1.378-.601l-4.471-14.04a1 1 0 0 1 .524-1.207l8.974-4.258c-.294-3.881.072-8.055 1.069-12.169l-8.057-3.093c-.26-.1-.467-.304-.571-.563a1.004 1.004 0 0 1 .027-.802l7.071-14.78a1 1 0 0 1 1.261-.501l8.127 3.132a46.202 46.202 0 0 1 9.197-9.255l-2.733-8.605c-.151-.476.072-.99.522-1.206l14.435-6.884a1.002 1.002 0 0 1 1.384.598l2.705 8.461c3.904-.867 7.792-1.102 11.571-.705l.081.009 4.398-9.175a.996.996 0 0 1 1.26-.501l13.377 5.125a.998.998 0 0 1 .544 1.365l-4.34 9.054c2.885 2.088 5.385 4.749 7.449 7.925l8.74-4.133a1.002 1.002 0 0 1 1.38.597l4.518 14.041a1 1 0 0 1-.523 1.209l-8.972 4.261c.301 3.918-.058 8.003-1.068 12.167l8.057 3.096a1.001 1.001 0 0 1 .543 1.365l-7.071 14.78c-.225.47-.773.688-1.261.502l-8.167-3.138c-2.538 3.442-5.614 6.552-9.161 9.257l2.725 8.661c.149.477-.075.99-.526 1.204l-14.425 6.834a1.001 1.001 0 0 1-1.381-.599l-2.701-8.455a35.329 35.329 0 0 1-11.537.704l-.119-.013-4.396 9.175a1 1 0 0 1-.902.568zm-12.009-6.672 11.506 4.408 4.306-8.988a.997.997 0 0 1 1.028-.56c.267.034.532.064.797.092 3.892.413 7.846.117 11.751-.873a1 1 0 0 1 1.198.665l2.636 8.251 12.605-5.972-2.676-8.504a1 1 0 0 1 .359-1.104c3.837-2.84 7.116-6.16 9.748-9.867a.999.999 0 0 1 1.174-.355l8.023 3.083 6.206-12.971-7.875-3.025a1 1 0 0 1-.608-1.189c1.184-4.484 1.578-8.87 1.171-13.035a1 1 0 0 1 .566-1l8.808-4.184-3.9-12.123-8.51 4.025a.998.998 0 0 1-1.281-.382c-2.163-3.533-4.872-6.416-8.051-8.569a1 1 0 0 1-.341-1.26l4.238-8.841-11.503-4.407-4.308 8.987a1.003 1.003 0 0 1-1.027.56 31.95 31.95 0 0 0-.758-.088c-3.842-.407-7.81-.114-11.793.87a.999.999 0 0 1-1.192-.666l-2.637-8.249-12.614 6.016 2.686 8.456c.13.41-.017.857-.364 1.111a44.23 44.23 0 0 0-9.792 9.863.998.998 0 0 1-1.17.347l-7.978-3.074-6.204 12.969 7.875 3.023a.999.999 0 0 1 .608 1.189c-1.168 4.415-1.573 8.923-1.172 13.037a1 1 0 0 1-.566 1l-8.812 4.182 3.86 12.12 8.557-4.022a1 1 0 0 1 1.283.39 28.187 28.187 0 0 0 8.001 8.616 1 1 0 0 1 .328 1.247l-4.182 8.799zm23.995-23.448c-.556 0-1.109-.029-1.657-.086-5.808-.613-10.506-4.446-12.262-10.004-2.815-8.757 2.194-19.303 11.168-23.503 3.014-1.436 6.228-2.025 9.287-1.704 5.783.61 10.485 4.444 12.272 10.004 2.807 8.737-2.201 19.282-11.164 23.506-2.476 1.179-5.089 1.787-7.644 1.787zm4.892-33.383c-2.254 0-4.574.543-6.788 1.598-8.101 3.792-12.637 13.25-10.117 21.087 1.536 4.865 5.486 8.087 10.566 8.623 2.705.287 5.551-.24 8.235-1.519 8.09-3.813 12.627-13.272 10.116-21.087-1.564-4.868-5.519-8.093-10.578-8.626a13.68 13.68 0 0 0-1.435-.075z" fill="#111"/><path d="m87.783 794.086-62.884-6.633c-6.438-.679-13.033 4.301-14.687 11.139L1.379 835.11c-1.655 6.841 2.263 12.927 8.701 13.606l43.375 4.575 5.044 15.079 11.955-13.286 2.51.265c6.44.679 12.986-4.303 14.641-11.144l8.833-36.518c1.654-6.839-2.215-12.922-8.655-13.601" fill="#b0c3ff"/><path d="M58.499 869.371a1 1 0 0 1-.949-.683l-4.84-14.469-42.736-4.508c-3.237-.342-6.025-1.954-7.849-4.541-1.992-2.825-2.618-6.577-1.719-10.295l8.833-36.519c1.764-7.291 8.833-12.624 15.764-11.898l62.884 6.633c3.224.34 5.997 1.943 7.81 4.513 1.991 2.824 2.615 6.584 1.712 10.318l-8.833 36.519c-1.764 7.292-8.81 12.63-15.718 11.903l-2.002-.211-11.614 12.907a.999.999 0 0 1-.743.331zm-34.794-80.98c-5.604 0-11.077 4.47-12.52 10.437l-8.833 36.519c-.764 3.158-.25 6.318 1.41 8.672 1.487 2.108 3.769 3.424 6.424 3.704l43.375 4.575c.39.041.719.306.843.677l4.5 13.452 10.808-12.01a.998.998 0 0 1 .848-.326l2.51.265c5.945.634 12.027-4.032 13.563-10.384l8.833-36.518c.768-3.174.256-6.343-1.403-8.695-1.476-2.092-3.743-3.398-6.385-3.677l-62.884-6.633a10.199 10.199 0 0 0-1.089-.057z" fill="#111"/><path d="M785.022 95.167 418.415 56.496c-15.864-1.673-32.042 10.601-36.118 27.45L287.25 476.882c-4.076 16.851 5.496 31.889 21.359 33.563l366.607 38.671c15.864 1.673 32.005-10.653 36.081-27.504l95.047-392.936c4.075-16.848-5.459-31.835-21.322-33.509z" fill="#fff"/><path d="M678.095 550.267c-.995 0-1.988-.051-2.983-.156L308.506 511.44c-7.516-.793-13.985-4.534-18.215-10.533-4.675-6.629-6.137-15.472-4.011-24.26L381.327 83.71c4.179-17.277 20.865-29.934 37.194-28.209l366.606 38.671c7.516.793 13.979 4.525 18.198 10.508 4.662 6.611 6.117 15.443 3.991 24.23l-95.047 392.937c-3.93 16.248-18.869 28.419-34.174 28.419zM415.501 57.344c-14.432 0-28.52 11.493-32.231 26.837l-95.047 392.937c-1.991 8.228-.642 16.479 3.701 22.638 3.894 5.521 9.856 8.964 16.791 9.696l366.606 38.671c15.345 1.615 31.045-10.379 35.004-26.745l95.047-392.936c1.989-8.228.647-16.467-3.683-22.608-3.882-5.505-9.839-8.94-16.772-9.671L418.31 57.492a26.68 26.68 0 0 0-2.809-.147z" fill="#111"/><path d="m738.741 169.052-311.206-32.827c-8.616-.909-17.425 5.796-19.64 14.952-2.226 9.205 2.994 17.336 11.61 18.245l311.206 32.827c8.619.909 17.415-5.744 19.642-14.949 2.215-9.155-2.993-17.339-11.612-18.248z" fill="#fff"/><path d="M732.278 203.331a16.11 16.11 0 0 1-1.671-.087L419.4 170.417c-4.227-.446-7.862-2.546-10.237-5.915-2.612-3.704-3.428-8.646-2.24-13.561 2.328-9.623 11.621-16.667 20.717-15.711l311.206 32.827c4.216.445 7.847 2.546 10.225 5.918 2.619 3.713 3.441 8.656 2.255 13.56-2.185 9.032-10.511 15.796-19.048 15.796zm-306.329-66.189c-7.642 0-15.108 6.112-17.082 14.27-1.053 4.354-.35 8.705 1.93 11.938 2.038 2.89 5.168 4.693 8.813 5.078l311.206 32.827c8.136.862 16.465-5.507 18.566-14.189 1.05-4.343.341-8.694-1.946-11.937-2.04-2.893-5.165-4.698-8.799-5.081L427.43 137.221a14.128 14.128 0 0 0-1.481-.078z" fill="#111"/><path d="m518.878 145.861-91.343-9.635c-8.616-.909-17.425 5.796-19.64 14.952-2.226 9.205 2.994 17.336 11.61 18.245l91.343 9.635c8.616.909 17.413-5.744 19.639-14.949 2.215-9.155-2.993-17.339-11.609-18.248" fill="#3658c1"/><path d="M512.414 180.14c-.557 0-1.114-.029-1.671-.087l-91.343-9.635c-4.227-.446-7.862-2.546-10.237-5.915-2.612-3.704-3.428-8.646-2.24-13.561 2.328-9.623 11.621-16.667 20.717-15.711l91.343 9.635c4.214.445 7.844 2.546 10.221 5.917 2.619 3.714 3.441 8.657 2.255 13.561-2.185 9.032-10.509 15.795-19.045 15.795zm-86.465-42.997c-7.642 0-15.109 6.112-17.082 14.27-1.053 4.354-.35 8.705 1.93 11.938 2.038 2.89 5.168 4.693 8.813 5.078l91.343 9.635c8.13.862 16.462-5.507 18.562-14.189 1.051-4.344.342-8.695-1.945-11.938-2.04-2.893-5.164-4.697-8.797-5.08l-91.343-9.635a14.128 14.128 0 0 0-1.481-.078z" fill="#111"/><path d="M717.206 258.083 406 225.256c-8.616-.909-17.425 5.796-19.639 14.949-2.227 9.205 2.993 17.339 11.609 18.248l311.206 32.827c8.619.909 17.416-5.747 19.643-14.951 2.214-9.153-2.994-17.336-11.613-18.246z" fill="#fff"/><path d="M710.741 292.362c-.557 0-1.113-.029-1.67-.087l-311.207-32.827c-4.226-.446-7.861-2.546-10.236-5.914-2.612-3.705-3.429-8.649-2.24-13.563 2.327-9.622 11.624-16.667 20.716-15.708L717.31 257.09c4.216.445 7.848 2.547 10.225 5.919 2.619 3.713 3.44 8.655 2.255 13.556-2.185 9.034-10.511 15.799-19.049 15.799zm-306.328-66.189c-7.642 0-15.108 6.111-17.081 14.267-1.054 4.355-.35 8.708 1.931 11.941 2.038 2.89 5.167 4.693 8.811 5.078l311.206 32.827c8.138.861 16.465-5.508 18.566-14.192 1.05-4.341.341-8.691-1.945-11.934-2.041-2.894-5.166-4.699-8.8-5.082l-311.207-32.827a14.128 14.128 0 0 0-1.481-.078z" fill="#111"/><path d="m565.765 242.108-159.766-16.853c-8.616-.909-17.425 5.796-19.639 14.949-2.226 9.205 2.993 17.339 11.609 18.248l159.766 16.853c8.619.909 17.416-5.747 19.642-14.951 2.214-9.153-2.994-17.336-11.613-18.246" fill="#3658c1"/><path d="M559.301 276.387c-.557 0-1.113-.029-1.67-.087l-159.766-16.853c-4.226-.446-7.86-2.546-10.236-5.914-2.612-3.705-3.429-8.648-2.241-13.563 2.328-9.622 11.625-16.667 20.717-15.708l159.765 16.853c4.216.445 7.847 2.547 10.225 5.918 2.619 3.713 3.44 8.655 2.255 13.557-2.186 9.034-10.511 15.798-19.049 15.798zm-154.887-50.214c-7.642 0-15.108 6.111-17.082 14.267-1.053 4.354-.35 8.707 1.931 11.941 2.038 2.89 5.167 4.693 8.811 5.077l159.766 16.853c8.138.861 16.465-5.508 18.565-14.192 1.05-4.342.341-8.691-1.945-11.934-2.041-2.894-5.166-4.699-8.8-5.082L405.895 226.25a14.128 14.128 0 0 0-1.481-.078z" fill="#111"/><path d="m695.671 347.11-311.206-32.827c-8.616-.909-17.425 5.796-19.64 14.952-2.215 9.155 2.993 17.339 11.609 18.248L687.64 380.31c8.619.909 17.428-5.796 19.642-14.951 2.215-9.155-2.993-17.339-11.612-18.248z" fill="#fff"/><path d="M689.206 381.392c-.557 0-1.113-.029-1.67-.087L376.33 348.478c-4.214-.445-7.844-2.546-10.222-5.917-2.619-3.714-3.441-8.656-2.255-13.56 2.328-9.624 11.624-16.668 20.717-15.711l311.206 32.827c4.216.445 7.847 2.546 10.225 5.918 2.619 3.713 3.441 8.656 2.255 13.56-2.185 9.034-10.512 15.799-19.049 15.799zM382.879 315.2c-7.642 0-15.109 6.112-17.082 14.27-1.051 4.343-.342 8.694 1.945 11.938 2.04 2.893 5.164 4.697 8.797 5.081l311.206 32.827c8.138.862 16.466-5.508 18.566-14.192 1.05-4.343.341-8.694-1.946-11.937-2.04-2.893-5.165-4.698-8.799-5.081l-311.207-32.827a14.128 14.128 0 0 0-1.481-.078z" fill="#111"/><path d="m524.863 329.093-140.398-14.81c-8.616-.909-17.425 5.796-19.64 14.952-2.215 9.155 2.993 17.339 11.609 18.248l140.398 14.81c8.619.909 17.428-5.796 19.642-14.951 2.215-9.155-2.993-17.339-11.612-18.248" fill="#3658c1"/><path d="M518.398 363.374c-.557 0-1.113-.029-1.67-.087l-140.398-14.81c-4.214-.444-7.844-2.546-10.221-5.917-2.619-3.714-3.441-8.657-2.255-13.561 2.328-9.624 11.624-16.668 20.717-15.711l140.397 14.81c4.216.445 7.847 2.546 10.225 5.918 2.619 3.713 3.441 8.656 2.255 13.559-2.186 9.034-10.512 15.799-19.049 15.799zM382.879 315.2c-7.642 0-15.109 6.112-17.082 14.27-1.051 4.344-.342 8.695 1.945 11.938 2.04 2.893 5.164 4.697 8.797 5.08l140.398 14.81c8.134.859 16.465-5.508 18.565-14.192 1.051-4.343.342-8.694-1.945-11.937-2.041-2.894-5.166-4.698-8.8-5.082l-140.397-14.81a14.128 14.128 0 0 0-1.481-.078z" fill="#111"/><path d="M674.136 436.14 362.93 403.313c-8.616-.909-17.425 5.796-19.64 14.952-2.214 9.153 2.993 17.336 11.61 18.245l272.805 28.776 38.401 4.051c8.619.909 17.428-5.796 19.642-14.949 2.215-9.155-2.993-17.339-11.612-18.248z" fill="#fff"/><path d="M667.672 470.419c-.557 0-1.114-.029-1.671-.087l-38.4-4.051-272.806-28.776c-4.215-.445-7.845-2.546-10.223-5.917-2.619-3.714-3.44-8.655-2.254-13.558 2.327-9.623 11.625-16.667 20.717-15.711l311.207 32.827c4.215.444 7.846 2.546 10.224 5.917 2.619 3.714 3.441 8.657 2.255 13.56-2.185 9.032-10.51 15.795-19.048 15.796zm-39.863-6.124c.608.06 4.983.522 38.402 4.047 8.14.866 16.465-5.507 18.565-14.189 1.051-4.343.342-8.694-1.945-11.937-2.041-2.894-5.166-4.698-8.799-5.081l-311.207-32.827c-8.139-.864-16.462 5.508-18.563 14.192-1.051 4.342-.342 8.692 1.945 11.935 2.041 2.894 5.165 4.698 8.798 5.081l272.805 28.776v.004z" fill="#111"/><path d="M635.735 432.09 362.93 403.314c-8.616-.909-17.425 5.796-19.64 14.952-2.214 9.153 2.994 17.336 11.61 18.245l272.805 28.776c8.619.909 17.428-5.796 19.642-14.949 2.215-9.155-2.993-17.339-11.612-18.248" fill="#3658c1"/><path d="M629.271 466.369c-.557 0-1.114-.029-1.671-.087l-272.805-28.776c-4.215-.445-7.845-2.546-10.223-5.917-2.619-3.714-3.44-8.655-2.254-13.558 2.327-9.623 11.625-16.667 20.717-15.711l272.805 28.776c4.216.445 7.847 2.546 10.224 5.918 2.619 3.714 3.441 8.656 2.255 13.56-2.185 9.032-10.51 15.796-19.048 15.796zm-267.927-62.138c-7.642 0-15.109 6.112-17.082 14.27-1.051 4.342-.342 8.692 1.945 11.935 2.04 2.894 5.165 4.698 8.798 5.081l272.805 28.776c8.14.864 16.464-5.507 18.564-14.189 1.051-4.344.342-8.694-1.945-11.938-2.041-2.893-5.166-4.698-8.8-5.081l-272.805-28.776a14.128 14.128 0 0 0-1.481-.078z" fill="#111"/><path d="M1390.259 159.009 880.707 105.26c-15.861-1.673-31.991 10.607-36.066 27.455l-95.047 392.936c-4.076 16.851 5.447 31.884 21.308 33.557l509.551 53.749c15.815 1.668 32.005-10.653 36.081-27.504l95.047-392.936c4.075-16.848-5.508-31.84-21.322-33.509z" fill="#fff"/><path d="M1283.331 614.109c-.993 0-1.988-.052-2.982-.156l-509.551-53.75c-7.501-.791-13.955-4.521-18.173-10.503-4.674-6.627-6.133-15.479-4.003-24.283l95.047-392.937c4.178-17.277 20.855-29.934 37.143-28.214l509.552 53.75c7.504.792 13.962 4.527 18.187 10.518 4.667 6.617 6.126 15.445 4.003 24.221l-95.047 392.936c-3.931 16.249-18.868 28.419-34.175 28.42zM877.804 106.108c-14.408 0-28.479 11.496-32.191 26.842l-95.047 392.937c-1.994 8.245-.647 16.504 3.693 22.661 3.882 5.504 9.829 8.937 16.748 9.667l509.551 53.75c15.356 1.616 31.046-10.38 35.005-26.744l95.047-392.937c1.986-8.215.641-16.452-3.693-22.598-3.888-5.513-9.841-8.951-16.762-9.681l-509.552-53.75a26.775 26.775 0 0 0-2.799-.146z" fill="#111"/><path d="M1010.833 283.794h-.01.01m.469-1.862-.116.447.116-.447m.38-1.418-.159.579.159-.579m.369-1.31-.166.587zm1.016-3.296c-.093.287-.186.574-.277.861.091-.287.184-.574.277-.861m.415-1.249c-.102.3-.204.603-.303.903.102-.3.201-.603.303-.903m7.133-16.33a106.625 106.625 0 0 0-7.039 16.063 107.376 107.376 0 0 1 7.039-16.063m1.739-3.102c-.09.153-.177.309-.265.462.087-.153.175-.309.265-.462m.78-1.32-.092.153.092-.153m103.626-85.811s-.126-.013-.38-.032l.002-.008c-32.237-3.244-64.919 7.802-91.487 28.11-25.049 19.105-44.895 46.57-54.03 78.206 5.426-18.771 14.653-36.103 26.493-51.091 4.197-5.317 10.394-7.923 16.005-7.331 2.528.267 4.938 1.184 6.993 2.795 6.482 5.08 7.019 15.234 1.303 22.898a113.871 113.871 0 0 1 19.856-19.429c19.593-14.954 43.383-22.97 66.846-20.595l.143.007-.002.008.049.005.003-.011-.003.011.092.01c23.393 2.468 42.292 14.88 53.914 33.076 11.624 18.196 15.809 41.849 9.881 66.757l-.024.101-.049.202c-4.392 18.158-13.802 35.373-27.004 49.403-6.741 7.184-7.363 17.794-1.372 23.741 2.246 2.227 5.095 3.484 8.137 3.805 5.069.535 10.669-1.53 14.882-6.02 18.045-19.195 30.93-42.751 36.94-67.597l.049-.202h-.013l.062-.202c8.132-34.216 2.343-66.705-13.442-91.376-15.776-24.721-41.691-41.848-73.845-45.239" fill="#fff"/><path d="M1163.713 379.816c-.565 0-1.13-.029-1.69-.088-3.377-.357-6.398-1.771-8.737-4.09-6.349-6.302-5.744-17.577 1.347-25.135 13.138-13.962 22.392-30.89 26.762-48.954l.073-.303c5.67-23.828 2.207-47.263-9.753-65.983-11.928-18.677-30.813-30.262-53.175-32.62l-.047-.006a1.186 1.186 0 0 1-.137-.017l-.039-.002c-22.501-2.275-45.987 4.967-66.195 20.391a112.814 112.814 0 0 0-19.682 19.258 1 1 0 0 1-1.583-1.223c5.447-7.303 4.957-16.752-1.118-21.513-1.837-1.439-4.078-2.333-6.48-2.587-5.486-.576-11.271 2.087-15.115 6.956-5.925 7.5-11.061 15.387-15.382 23.609a145.915 145.915 0 0 0-9.671 22.999 144.33 144.33 0 0 0-1.265 4.141 1.113 1.113 0 0 1-.065.167c-.006.06-.017.119-.034.179-.134.466-.266.936-.395 1.405a.97.97 0 0 1-.116.267v.029a.994.994 0 0 1-.035.262c-.119.44-.236.88-.351 1.321a1.01 1.01 0 0 1-.102.249v.012c0 .082-.01.165-.031.247-.154.604-.305 1.206-.451 1.81a.995.995 0 0 1-1.207.736.999.999 0 0 1-.737-1.207c.148-.613.301-1.222.457-1.834a.982.982 0 0 1 .103-.252v-.01c0-.083.01-.168.032-.253.116-.447.235-.895.356-1.341a.99.99 0 0 1 .117-.27v-.029c0-.087.012-.176.036-.265.131-.477.264-.951.4-1.427.017-.059.039-.116.065-.169.006-.06.017-.12.034-.18l.011-.035c.382-1.323.784-2.642 1.205-3.955v-.004l.003-.008a146.87 146.87 0 0 1 10.251-24.24c10.344-19.464 25.026-36.839 42.914-50.482 28.021-21.418 60.764-31.471 92.194-28.311a.954.954 0 0 1 .103.016c.169.013.262.023.278.024 31.404 3.313 57.892 19.541 74.583 45.696 16.679 26.067 21.499 58.792 13.572 92.146l-.03.103a.918.918 0 0 1-.02.102l-.049.202c-6.07 25.098-18.928 48.628-37.183 68.047-3.841 4.092-8.979 6.418-14.024 6.418zm-44.949-179.161c23.025 2.459 42.394 14.361 54.636 33.531 12.255 19.181 15.81 43.163 10.012 67.526l-.074.307c-4.451 18.401-13.873 35.64-27.247 49.853-6.357 6.775-6.983 16.8-1.396 22.346 2.013 1.995 4.619 3.212 7.539 3.521 4.944.528 10.201-1.612 14.047-5.71 18.019-19.167 30.708-42.386 36.697-67.147l.013-.052a.948.948 0 0 1 .039-.21l.062-.2c7.783-32.759 3.056-64.937-13.329-90.543-16.357-25.632-42.32-41.537-73.106-44.784-.008 0-.104-.012-.346-.029a1.013 1.013 0 0 1-.156-.024c-30.888-3.066-63.072 6.843-90.65 27.923a153.782 153.782 0 0 0-21.2 19.582c2.924-1.335 6.077-1.913 9.166-1.587 2.776.293 5.371 1.331 7.504 3.002 5.022 3.935 6.751 10.611 5.008 17.102a114.65 114.65 0 0 1 14.929-13.641c20.613-15.732 44.602-23.117 67.553-20.795l.087.002a.99.99 0 0 1 .145.017.589.589 0 0 1 .071.013zm-107.931 84.139a.943.943 0 0 1-.149-.011h-.01a1.003 1.003 0 0 1-.841-1.138c.049-.321.244-.583.509-.729a.996.996 0 0 1-.125-.784l.116-.451a.982.982 0 0 1 .207-.399.99.99 0 0 1 .016-.447l.158-.58a.989.989 0 0 1 .176-.354.982.982 0 0 1 .032-.383l.166-.587a1.01 1.01 0 0 1 .151-.313v-.053c0-.095.014-.192.042-.289.151-.505.306-1.009.462-1.514a.902.902 0 0 1 .059-.147c.008-.048.019-.097.034-.145l.279-.87a.966.966 0 0 1 .072-.168.932.932 0 0 1 .042-.185l.305-.909c.017-.049.037-.096.06-.141.009-.043.021-.087.035-.13a107.936 107.936 0 0 1 7.105-16.213l.01-.019.021-.038c.163-.302.329-.604.494-.903a.97.97 0 0 1 .104-.152c.019-.056.043-.11.072-.164.144-.261.29-.521.438-.782.134-.233.348-.393.587-.463l-.243-.138.272-.476c.136-.23.349-.386.587-.455a.927.927 0 0 1 .104-.715l.004-.006s0-.003.002-.004l.065-.108c.286-.473.913-.645 1.385-.36.473.285.638.879.353 1.352l-.025.042-.02.033-.006.01-.037.062h-.003a1.09 1.09 0 0 1-.579.403.999.999 0 0 1-.105.761l-.23.401-.289-.144a1.006 1.006 0 0 1-.085.799c-.145.251-.285.503-.425.755a.923.923 0 0 1-.104.154 1.148 1.148 0 0 1-.07.162l-.488.889-.009.017-.02.037a106.868 106.868 0 0 0-6.971 15.905c0 .002 0 .005-.002.008a.911.911 0 0 1-.058.136c-.009.043-.02.085-.034.127l-.303.902a.994.994 0 0 1-.068.156 1.036 1.036 0 0 1-.04.178l-.273.852a1.02 1.02 0 0 1-.058.145 1.213 1.213 0 0 1-.033.142c-.154.499-.307.997-.456 1.496-.033.11-.084.211-.147.299v.055c0 .09-.013.182-.038.273l-.166.586a1 1 0 0 1-.172.34.982.982 0 0 1-.028.368l-.158.58a.997.997 0 0 1-.205.391.992.992 0 0 1-.014.439l-.114.443a.997.997 0 0 1-.486.63.995.995 0 0 1 .148.687.997.997 0 0 1-.983.853z" fill="#111"/><path d="M1010.822 283.793h.01-.01m12.54-67.843c-5.611-.592-11.808 2.015-16.005 7.331-11.84 14.988-21.067 32.32-26.493 51.091l-.1.348a128.2 128.2 0 0 0-.903 3.308c-.044.172-.091.343-.134.512-.155.608-.307 1.213-.454 1.822 0 0-.04.164-.102.454h-.008c-5.915 24.856-4.725 49.843 3.474 71.756 1.91 5.118 6.254 8.213 11.302 8.745 3.049.322 6.357-.292 9.539-1.957 5.289-2.795 8.997-7.833 10.282-13.21.773-3.226.671-6.576-.482-9.639-5.973-16.053-6.839-34.354-2.495-52.517l.029-.151h.008l.036-.149c.106-.439.218-.878.328-1.314l.116-.447c.073-.281.146-.561.221-.839l.159-.579c.066-.239.135-.481.204-.723l.166-.587c.062-.214.127-.426.189-.64.15-.502.303-1.003.459-1.505l.091-.29c.091-.287.184-.574.277-.861.038-.114.077-.23.113-.346.099-.3.201-.603.303-.903l.094-.267a106.714 106.714 0 0 1 7.039-16.063l.029-.056c.162-.299.326-.595.49-.894.057-.106.117-.212.177-.317.141-.257.285-.513.431-.769.112-.204.229-.404.346-.604.087-.153.175-.309.265-.462.226-.39.457-.78.688-1.167l.092-.153a111.491 111.491 0 0 1 8.176-11.798c.119-.155.233-.311.35-.467 5.716-7.664 5.179-17.818-1.303-22.898-2.055-1.61-4.465-2.528-6.993-2.795" fill="#b0c3ff"/><path d="M995.522 362.399c-.564 0-1.127-.029-1.686-.088-5.626-.593-10.162-4.104-12.135-9.39-8.287-22.149-9.501-47.163-3.51-72.338.008-.035.018-.068.029-.101.05-.227.08-.353.08-.353.149-.616.302-1.225.458-1.837l.134-.513c.117-.45.236-.897.357-1.344l.152-.56c.132-.48.266-.957.401-1.431l.099-.344c5.347-18.499 14.319-35.804 26.67-51.438 4.265-5.402 10.724-8.359 16.896-7.706 2.776.293 5.371 1.331 7.504 3.002 6.937 5.436 7.591 16.102 1.488 24.283l-.358.478a111.103 111.103 0 0 0-8.112 11.705l-.088.147c-.229.386-.459.772-.684 1.159l-.233.406-.065.113c-.102.175-.203.35-.301.528-.152.265-.293.517-.433.769l-.663 1.204a106.216 106.216 0 0 0-7.001 15.966l-.394 1.161c-.028.096-.069.217-.108.335l-.372 1.161c-.148.479-.301.978-.45 1.477l-1.043 3.774c-.11.433-.221.868-.326 1.304l-.036.149a.575.575 0 0 1-.02.071l-.006.029c-4.326 18.098-3.476 36.057 2.45 51.984 1.185 3.147 1.364 6.683.518 10.22-1.398 5.849-5.431 11.031-10.788 13.861-2.719 1.423-5.6 2.156-8.425 2.156zm-15.413-81.233c-5.866 24.747-4.668 49.313 3.466 71.055 1.702 4.561 5.616 7.589 10.471 8.101 2.963.315 6.063-.327 8.971-1.849 4.853-2.563 8.507-7.258 9.773-12.556.754-3.147.6-6.278-.445-9.054-6.066-16.304-6.941-34.665-2.532-53.102l.019-.103c.008-.042.019-.084.031-.125l.022-.074c.107-.445.22-.888.332-1.329l1.062-3.843c.154-.516.309-1.021.465-1.525l.892-2.71a107.803 107.803 0 0 1 7.1-16.198l.685-1.248c.16-.289.307-.549.455-.81.098-.177.207-.365.315-.552l.925.398-.87-.493.246-.429c.226-.389.459-.782.691-1.172l.07-.117a113.198 113.198 0 0 1 8.272-11.943l.333-.445c5.446-7.302 4.956-16.751-1.119-21.512-1.837-1.439-4.078-2.333-6.48-2.587-5.475-.576-11.271 2.087-15.114 6.956-12.19 15.431-21.045 32.506-26.317 50.75l-.099.342c-.135.469-.267.939-.396 1.408l-.15.557c-.12.441-.237.881-.352 1.322l-.133.507a154.37 154.37 0 0 0-.451 1.811l-.096.429a1.076 1.076 0 0 1-.041.14z" fill="#111"/><path d="m864.353 484.829-39.018-4.116-10.402 43.005 39.018 4.115z" fill="#b0c3ff"/><path d="M853.951 528.833a1.23 1.23 0 0 1-.105-.005l-39.018-4.116a1.001 1.001 0 0 1-.867-1.229l10.402-43.005a1.01 1.01 0 0 1 1.076-.759l39.018 4.116a1.001 1.001 0 0 1 .867 1.229l-10.402 43.005a1 1 0 0 1-.971.765zm-37.778-5.99 37.012 3.904 9.928-41.043-37.012-3.904z" fill="#111"/><path d="m941.212 464.204-39.018-4.116-17.179 71.022 39.018 4.116z" fill="#b0c3ff"/><path d="M924.033 536.226a1.23 1.23 0 0 1-.105-.005l-39.018-4.116a1.001 1.001 0 0 1-.867-1.23l17.18-71.022a1.012 1.012 0 0 1 1.076-.759l39.018 4.116a1.001 1.001 0 0 1 .867 1.229l-17.18 71.022a1 1 0 0 1-.971.765zm-37.778-5.99 37.012 3.904 16.705-69.062-37.012-3.904z" fill="#111"/><path d="m1008.749 482.108-39.018-4.116-14.637 60.51 39.018 4.116z" fill="#b0c3ff"/><path d="M994.114 543.618a1.23 1.23 0 0 1-.105-.005l-39.019-4.116a1.001 1.001 0 0 1-.867-1.23l14.637-60.51a1.01 1.01 0 0 1 1.076-.759l39.019 4.116a1.001 1.001 0 0 1 .867 1.23l-14.637 60.51a1 1 0 0 1-.971.765zm-37.779-5.99 37.013 3.904 14.162-58.549-37.013-3.904z" fill="#111"/><path d="m1087.369 454.191-39.015-4.116-23.178 95.82 39.016 4.115z" fill="#b0c3ff"/><path d="M1064.193 551.01a1.23 1.23 0 0 1-.105-.005l-39.016-4.115a1.001 1.001 0 0 1-.867-1.23l23.178-95.819a1.008 1.008 0 0 1 1.076-.76l39.016 4.116a1.001 1.001 0 0 1 .867 1.23l-23.178 95.819a1 1 0 0 1-.971.765zm-37.776-5.99 37.01 3.903 22.703-93.858-37.01-3.904z" fill="#111"/><path d="m1161.014 447.051-39.064-4.12-26.694 110.356 39.064 4.121z" fill="#b0c3ff"/><path d="M1134.321 558.408a1.23 1.23 0 0 1-.105-.005l-39.063-4.121a1.001 1.001 0 0 1-.867-1.229l26.693-110.356a1.009 1.009 0 0 1 1.076-.76l39.064 4.121a1.001 1.001 0 0 1 .867 1.23l-26.694 110.356a1 1 0 0 1-.971.765zm-37.824-5.995 37.058 3.909 26.22-108.396-37.059-3.909z" fill="#111"/><path d="m1221.581 493.778-39.017-4.116-17.18 71.022 39.018 4.116z" fill="#b0c3ff"/><path d="M1204.403 565.8a1.23 1.23 0 0 1-.105-.005l-39.018-4.116a1.001 1.001 0 0 1-.867-1.23l17.18-71.022a1.011 1.011 0 0 1 1.076-.759l39.018 4.116a1.001 1.001 0 0 1 .867 1.23l-17.18 71.022a1 1 0 0 1-.971.765zm-37.778-5.99 37.012 3.904 16.705-69.061-37.012-3.904z" fill="#111"/><path d="m1297.659 476.373-39.018-4.116-23.177 95.82 39.017 4.115z" fill="#b0c3ff"/><path d="M1274.483 573.192a1.23 1.23 0 0 1-.105-.005l-39.019-4.116a1.001 1.001 0 0 1-.867-1.23l23.178-95.819a1.011 1.011 0 0 1 1.076-.759l39.019 4.116a1.001 1.001 0 0 1 .867 1.23l-23.178 95.819a1 1 0 0 1-.971.765zm-37.779-5.99 37.013 3.904 22.703-93.858-37.013-3.904z" fill="#111"/><path d="M1271.39 650.432 299.546 547.919c-15.864-1.673-32.054 10.651-36.118 27.45l-87.685 362.504c-4.076 16.851 5.495 31.892 21.359 33.566l971.844 102.513c15.815 1.668 32.005-10.656 36.081-27.507l87.685-362.504c4.064-16.799-5.508-31.84-21.322-33.509" fill="#fff"/><path d="M1171.824 1075.101c-.994 0-1.989-.051-2.982-.156L196.997 972.432c-7.515-.793-13.984-4.533-18.214-10.532-4.675-6.63-6.138-15.474-4.011-24.263l87.685-362.503c4.179-17.277 20.862-29.934 37.195-28.209l971.844 102.513c7.492.791 13.946 4.526 18.173 10.52 4.673 6.627 6.137 15.454 4.017 24.218L1206 1046.679c-3.931 16.25-18.869 28.422-34.175 28.423zM296.633 548.766c-14.433 0-28.521 11.493-32.232 26.837l-87.686 362.503c-1.991 8.229-.642 16.481 3.702 22.641 3.893 5.521 9.856 8.964 16.79 9.696l971.844 102.513c.931.098 1.864.146 2.794.146 14.412.001 28.491-11.519 32.211-26.894l87.686-362.503c1.984-8.205.633-16.44-3.708-22.596-3.89-5.516-9.837-8.955-16.747-9.684L299.442 548.912a26.676 26.676 0 0 0-2.808-.147z" fill="#111"/><path d="M1125.74 809.108c-5.163-.047-9.89-.316-14.242-.775-24.909-2.628-37.586-11.473-49.438-20.232-11.907-8.773-22.985-17.422-44.721-19.715-3.617-.382-7.535-.588-11.795-.587-46.686.074-93.281 49.405-134.691 45.037a47.063 47.063 0 0 1-2.712-.367c-51.783-8.555-41.152-83.416-51.892-125.144-6.432-25.056-19.738-39.68-36.534-41.452-13.166-1.389-28.475 5.123-44.299 20.701-61.131 60.196-98.573 186.078-178.642 195.892-13.895 1.711-26.838 1.624-39.136.327-25.667-2.707-48.496-10.696-71.126-18.663-22.633-7.962-45.057-15.908-69.922-18.531-42.129-4.444-122.272 20.773-191.278 72.711l-9.569 39.559c-4.076 16.851 5.495 31.892 21.359 33.566l971.844 102.513c15.815 1.668 32.005-10.656 36.081-27.507l87.686-362.504c-27.035 63.005-116.844 125.709-166.972 125.168z" fill="#3658c1"/><g fill="#111"><path d="M1171.824 1075.101c-.994 0-1.988-.051-2.982-.156L196.997 972.432c-7.515-.793-13.984-4.533-18.214-10.532-4.675-6.63-6.138-15.474-4.012-24.264l9.569-39.559c.055-.225.186-.424.371-.563 32.393-24.381 69.04-44.313 105.979-57.641 33.659-12.145 64.199-17.565 86.004-15.266 24.756 2.612 47.52 10.621 69.533 18.365l.616.217c22.196 7.815 45.148 15.896 70.899 18.612 13.144 1.388 25.871 1.281 38.909-.325 50.783-6.225 84.971-60.707 118.033-113.396 18.656-29.73 37.947-60.473 60.029-82.217 15.45-15.211 31.058-22.467 45.104-20.983 17.353 1.83 30.983 17.21 37.398 42.198 2.848 11.066 4.184 24.25 5.597 38.209 3.799 37.508 8.104 80.021 45.49 86.196.889.147 1.781.268 2.652.359 20.757 2.185 42.707-9.241 65.949-21.343 22.342-11.633 45.443-23.662 68.636-23.699h.045c4.147 0 8.136.199 11.857.592 21.283 2.245 32.33 10.398 44.025 19.03l1.184.874c11.009 8.136 23.485 17.356 48.949 20.042 4.414.466 9.173.725 14.146.77h.002c24.01.285 58.189-14.157 91.545-38.562 34.825-25.479 61.979-56.826 74.498-86.001a.999.999 0 0 1 1.89.63l-87.686 362.503c-3.931 16.25-18.869 28.422-34.175 28.422zM186.199 898.896l-9.484 39.211c-1.991 8.229-.641 16.481 3.702 22.64 3.893 5.521 9.856 8.964 16.79 9.696l971.844 102.513c15.357 1.621 31.046-10.38 35.005-26.747l85.409-353.094c-13.967 26.897-39.345 54.895-70.988 78.046-33.691 24.651-68.368 39.234-92.747 38.947-5.036-.046-9.86-.309-14.336-.78-26.006-2.743-39.27-12.546-49.928-20.422l-1.184-.874c-11.471-8.466-22.305-16.463-43.048-18.65-3.652-.386-7.57-.581-11.646-.581h-.045c-22.703.036-45.585 11.95-67.714 23.473-23.517 12.245-45.741 23.811-67.082 21.559a48.177 48.177 0 0 1-2.77-.375c-38.896-6.425-43.283-49.747-47.153-87.969-1.406-13.881-2.734-26.993-5.545-37.913-6.195-24.132-19.196-38.969-35.67-40.707-13.457-1.419-28.483 5.642-43.493 20.419-21.915 21.581-41.143 52.222-59.737 81.855-33.311 53.085-67.756 107.977-119.484 114.318-13.189 1.625-26.066 1.732-39.363.329-25.984-2.741-49.048-10.861-71.353-18.714l-.616-.217c-21.905-7.707-44.556-15.676-69.079-18.263-21.189-2.238-52.218 3.289-85.116 15.158-36.646 13.222-73.003 32.977-105.169 57.142zM75.151 1004.107a1 1 0 0 1-.973-1.235L316.576.765a1 1 0 0 1 1.945.471L76.122 1003.343a1 1 0 0 1-.971.765z"/></g></svg></g><g transform="translate(121.19999999999999 1686.0) rotate(0.0 293.4 271.79999999999995) scale(1.199195631560017 1.1977921491290886)"><svg width="489.328" height="453.835" viewBox="0 0 489.328 453.835"><path d="m337.597 186.757-201.274 18.006c-48.974 4.381-100.369-33.572-114.798-84.774-9.118-32.355-1.292-62.256 18.062-80.99L22.855 55.195C3.501 73.93-4.325 103.831 4.793 136.186c14.429 51.202 65.824 89.155 114.798 84.774l201.274-18.006c18.029-1.613 33.217-8.738 44.493-19.653l16.732-16.196c-11.276 10.915-26.464 18.04-44.493 19.653z" fill="#3658c1"/><path d="M111.881 222.301c-46.913 0-94.285-36.995-108.051-85.845-8.906-31.603-2.054-62.25 18.329-81.979l16.686-16.151a1 1 0 1 1 1.438 1.392l-.047.046C20.427 58.976 13.792 88.86 22.487 119.719c13.531 48.015 60.054 84.384 106.102 84.388a85.57 85.57 0 0 0 7.644-.339l201.274-18.006c17.206-1.539 32.382-8.239 43.886-19.375a1 1 0 0 1 1.391 1.437l-16.732 16.196c-11.837 11.458-27.432 18.35-45.099 19.93l-201.274 18.006a87.52 87.52 0 0 1-7.798.346zM28.361 51.257l-4.811 4.657C3.705 75.124-2.948 105.031 5.755 135.915c14.281 50.678 65.298 88.389 113.746 84.049l201.274-18.006c17.206-1.539 32.382-8.239 43.886-19.375l4.881-4.725c-9.386 5.48-20.167 8.85-31.857 9.896l-.089-.996.089.996-201.273 18.006c-49.357 4.416-101.32-33.939-115.85-85.499-7.136-25.322-4.154-50.033 7.799-69.003z" fill="#111"/><path d="M285.347 1.344c48.974-4.381 100.38 33.571 114.809 84.773s-13.585 96.259-62.559 100.64l-201.274 18.006c-48.974 4.381-100.369-33.572-114.798-84.774C7.096 68.788 35.099 23.732 84.073 19.35z" fill="#b0c3ff"/><path d="M128.613 206.105c-46.913.001-94.285-36.995-108.05-85.844-7.344-26.061-3.9-52.115 9.449-71.484 12.123-17.589 31.291-28.394 53.972-30.422L285.258.348l.089.996-.089-.996c49.357-4.418 101.331 33.938 115.86 85.497 7.343 26.057 3.898 52.11-9.451 71.479-12.125 17.593-31.296 28.4-53.981 30.429l-201.273 18.006a87.56 87.56 0 0 1-7.799.346zM293.082 2.001c-2.554 0-5.1.111-7.646.339L84.162 20.347c-22.078 1.975-40.724 12.475-52.503 29.565-13.01 18.877-16.353 44.32-9.171 69.806 13.531 48.015 60.054 84.384 106.102 84.388 2.554 0 5.098-.111 7.644-.339l201.273-18.006c22.082-1.976 40.731-12.478 52.513-29.572 13.01-18.877 16.354-44.319 9.173-69.801-13.531-48.015-60.058-84.387-106.111-84.387z" fill="#111"/><path d="M290.906 21.069c38.558-3.449 79.026 26.434 90.383 66.735 11.36 40.312-10.689 75.789-49.247 79.238-38.548 3.449-79.015-26.435-90.375-66.747-11.357-40.301 10.692-75.778 49.24-79.226z" fill="#fff"/><path d="M325.975 168.312c-37.023 0-74.408-29.194-85.271-67.745-5.798-20.573-3.075-41.148 7.471-56.45 9.581-13.901 24.725-22.44 42.642-24.043 38.947-3.482 79.97 26.778 91.434 67.46 5.799 20.579 3.076 41.158-7.47 56.461-9.582 13.902-24.729 22.441-42.65 24.044a69.126 69.126 0 0 1-6.155.273zm-34.98-146.246c-17.314 1.549-31.936 9.783-41.173 23.186-10.207 14.811-12.829 34.774-7.193 54.773 11.218 39.808 51.288 69.429 89.324 66.022 17.318-1.549 31.943-9.784 41.181-23.188 10.208-14.811 12.83-34.778 7.192-54.783-11.216-39.799-51.307-69.41-89.331-66.01z" fill="#111"/><path d="m421.988 418.287-201.284 18.007c-48.974 4.381-100.372-33.583-114.798-84.774-9.118-32.358-1.292-62.266 18.066-81.003l-16.732 16.196c-19.357 18.737-27.184 48.645-18.066 81.003 14.426 51.191 65.824 89.155 114.798 84.774l201.284-18.007c18.025-1.613 33.208-8.736 44.481-19.648l16.732-16.196c-11.273 10.912-26.457 18.036-44.481 19.648z" fill="#3658c1"/><path d="M196.261 453.832c-46.913.002-94.284-36.994-108.05-85.844-8.907-31.608-2.054-62.259 18.333-81.993l16.732-16.197a1 1 0 0 1 1.391 1.437c-19.85 19.213-26.503 49.125-17.799 80.013 14.282 50.679 65.306 88.374 113.747 84.049l201.284-18.007c17.201-1.538 32.373-8.237 43.875-19.371a1 1 0 0 1 1.391 1.437l-16.732 16.196c-11.834 11.455-27.425 18.346-45.087 19.926l-201.284 18.007a87.542 87.542 0 0 1-7.799.346zm-83.518-171.054-4.809 4.655c-19.85 19.213-26.503 49.125-17.799 80.012 14.282 50.679 65.305 88.382 113.747 84.049l201.284-18.007c17.201-1.538 32.372-8.237 43.875-19.371l4.882-4.726c-9.383 5.478-20.163 8.847-31.846 9.893L220.792 437.29c-49.341 4.425-101.319-33.938-115.849-85.498-7.137-25.326-4.154-50.04 7.8-69.014z" fill="#111"/><path d="M369.735 232.864c48.974-4.381 100.372 33.583 114.801 84.784 14.426 51.191-13.574 96.258-62.548 100.639l-201.284 18.007c-48.974 4.381-100.372-33.583-114.798-84.774-14.429-51.202 13.571-96.269 62.545-100.65l201.284-18.007z" fill="#fff"/><path d="M212.993 437.636c-46.913.002-94.284-36.994-108.05-85.844-7.345-26.063-3.9-52.123 9.452-71.495 12.123-17.59 31.289-28.394 53.967-30.423l201.285-18.007.089.996-.089-.996c49.353-4.41 101.321 33.944 115.853 85.508 7.343 26.059 3.897 52.113-9.453 71.484-12.124 17.59-31.29 28.395-53.969 30.423l-201.284 18.007a87.582 87.582 0 0 1-7.8.346zm164.475-204.115c-2.551 0-5.101.112-7.643.339L168.54 251.867c-22.075 1.975-40.719 12.475-52.499 29.565-13.013 18.88-16.356 44.328-9.173 69.817 13.531 48.016 60.054 84.384 106.102 84.388a85.61 85.61 0 0 0 7.645-.339l201.284-18.007c22.076-1.975 40.721-12.475 52.5-29.566 13.012-18.879 16.356-44.322 9.175-69.806-13.533-48.023-60.055-84.398-106.106-84.398z" fill="#111"/><path d="M174.01 270.596c38.558-3.449 79.026 26.434 90.386 66.746 11.357 40.301-10.692 75.778-49.25 79.227s-79.015-26.435-90.372-66.736c-11.36-40.312 10.679-75.788 49.237-79.237z" fill="#fff"/><path d="M209.079 417.839c-37.023 0-74.407-29.19-85.268-67.734-5.8-20.582-3.079-41.163 7.468-56.465 9.579-13.898 24.725-22.436 42.643-24.04 38.954-3.485 79.971 26.782 91.437 67.47 5.797 20.573 3.074 41.148-7.471 56.449-9.583 13.902-24.73 22.442-42.653 24.046a69.505 69.505 0 0 1-6.155.273zm-34.98-146.247c-17.315 1.549-31.938 9.782-41.173 23.182-10.208 14.811-12.828 34.78-7.19 54.787 11.216 39.802 51.278 69.418 89.321 66.012 17.319-1.549 31.945-9.784 41.184-23.189 10.207-14.809 12.829-34.772 7.193-54.771-11.217-39.808-51.298-69.419-89.334-66.021zm-.089-.996h.01z" fill="#111"/></svg></g><g transform="translate(396.0 615.6) rotate(-20.75219808441441 201.59999999999997 201.59999999999997) scale(1.2033162823734456 1.2020176725217329)"><svg width="335.074" height="335.436" viewBox="0 0 335.074 335.436"><path d="m330.447 171.334-37.403 8.036-16.419 17.921 37.403-8.036c1.047-.173 1.906-.644 2.524-1.319l16.419-17.921c-.619.675-1.477 1.145-2.524 1.319z" fill="#B0C3FF"/><path d="M276.624 198.291a1.002 1.002 0 0 1-.738-1.676l16.419-17.921a.994.994 0 0 1 .527-.302l37.403-8.036.046-.009c.79-.131 1.463-.478 1.947-1.004l.004-.004a1 1 0 0 1 1.475 1.351l-16.419 17.921c-.789.862-1.861 1.425-3.098 1.63l-37.357 8.027a.984.984 0 0 1-.209.023zm16.941-18.011-14.085 15.374 34.338-7.377c.838-.14 1.513-.489 1.997-1.017l13.415-14.642z" fill="#111"/><path d="M106.016 9.123c-.39-1.707.002-3.235.951-4.27l-16.42 17.922c-.948 1.035-1.34 2.562-.951 4.27l7.373 40.408 16.419-17.92z" fill="#B0C3FF"/><path d="M96.97 68.453a1 1 0 0 1-.984-.82l-7.373-40.408c-.441-1.927-.008-3.811 1.197-5.125l16.419-17.921a1 1 0 1 1 1.475 1.351c-.755.823-1.014 2.052-.713 3.371l.009.043 7.373 40.409c.056.308-.035.624-.246.855l-16.419 17.92c-.193.21-.462.325-.738.325zm7.939-59.874L91.285 23.45c-.754.823-1.014 2.052-.713 3.372l7.021 38.471 14.724-16.07-7.28-39.899a6.83 6.83 0 0 1-.128-.745z" fill="#111"/><path d="m243.966 221.253-16.419 17.921c11.982-13.078 17.924-31.745 15.117-53.296-5.882-45.165-47.965-85.894-93.993-90.969-24.065-2.653-44.445 4.965-57.573 19.295l16.419-17.921c13.129-14.33 33.508-21.948 57.573-19.295 46.028 5.075 88.111 45.803 93.993 90.969 2.807 21.551-3.135 40.218-15.117 53.296" fill="#B0C3FF"/><path d="M227.547 240.174a1 1 0 0 1-.737-1.676c12.252-13.373 17.53-32.014 14.863-52.491-5.817-44.664-47.586-85.085-93.111-90.104-22.705-2.503-43.383 4.413-56.726 18.977a1 1 0 0 1-1.475-1.351l16.419-17.921c13.778-15.038 35.07-22.188 58.42-19.613 46.385 5.114 88.946 46.311 94.875 91.834 2.745 21.072-2.714 40.285-15.372 54.101l-16.419 17.921a.998.998 0 0 1-.737.323zM139.513 93.399c3.044 0 6.137.17 9.268.516 46.385 5.114 88.946 46.311 94.875 91.833 1.989 15.273-.332 29.57-6.579 41.543l6.151-6.714.737.676-.737-.676c12.251-13.373 17.53-32.014 14.863-52.491-5.817-44.664-47.586-85.085-93.111-90.104-22.708-2.503-43.384 4.413-56.726 18.977l-6.219 6.788c10.588-6.757 23.505-10.348 37.478-10.348z" fill="#111"/><path d="m309.469 275.485-16.419 17.921c-.967 1.056-2.445 1.52-4.031 1.346-.983-.108-2.007-.462-2.976-1.074l16.419-17.921c.97.611 1.994.965 2.976 1.074 1.587.174 3.064-.29 4.031-1.346" fill="#B0C3FF"/><path d="M289.666 295.787c-.249 0-.5-.014-.755-.042-1.159-.127-2.335-.55-3.4-1.221a1 1 0 0 1-.204-1.521l16.419-17.921a1.001 1.001 0 0 1 1.271-.17c.81.511 1.692.831 2.553.926 1.293.142 2.453-.232 3.182-1.026l.001-.001a1 1 0 0 1 1.475 1.351l-.004.005-16.415 17.916c-1.012 1.102-2.486 1.704-4.123 1.704zm-2-2.4a5.72 5.72 0 0 0 1.463.371c1.294.142 2.455-.231 3.184-1.027l13.62-14.865a6.93 6.93 0 0 1-.604-.04 7.89 7.89 0 0 1-2.666-.807z" fill="#111"/><path d="m302.462 275.757-16.418 17.921-38.899-22.374 16.419-17.921z" fill="#B0C3FF"/><path d="M286.043 294.678a.995.995 0 0 1-.498-.133l-38.898-22.374a1.002 1.002 0 0 1-.239-1.543l16.419-17.921a1 1 0 0 1 1.236-.191l38.898 22.374a1.002 1.002 0 0 1 .239 1.543l-16.419 17.921a1 1 0 0 1-.738.324zm-37.317-23.619 37.122 21.352 15.034-16.41-37.122-21.352z" fill="#111"/><path d="M25.629 59.954a3.987 3.987 0 0 0-.459.608L8.747 87.048l16.419-17.921 16.423-26.486a3.97 3.97 0 0 1 .459-.608z" fill="#B0C3FF"/><path d="M8.747 88.048a1 1 0 0 1-.849-1.527L24.32 60.035c.165-.268.357-.523.571-.756l16.414-17.915.005-.006.001-.001a1 1 0 1 1 1.474 1.352l-.004.005c-.126.138-.24.29-.341.452L26.016 69.654a.965.965 0 0 1-.113.148L9.484 87.724a.998.998 0 0 1-.737.324zm26.567-37.184-8.948 9.766v.001a3.018 3.018 0 0 0-.344.455L15.228 78.494l9.137-9.973zm-9.685 9.09h.01z" fill="#111"/><path d="m263.564 253.383-16.419 17.921c-7.421 6.236-15.996 11.155-25.473 14.6l16.419-17.921c9.477-3.445 18.052-8.364 25.473-14.6" fill="#B0C3FF"/><path d="M221.673 286.904a1 1 0 0 1-.738-1.676l16.418-17.921a1 1 0 0 1 .396-.264c9.36-3.403 17.829-8.257 25.172-14.427a1 1 0 0 1 1.38 1.441l-16.419 17.921a1 1 0 0 1-.094.09c-7.521 6.32-16.193 11.291-25.774 14.774a.946.946 0 0 1-.341.062zm16.99-18.065-13.344 14.565c7.768-3.26 14.861-7.562 21.132-12.824l9.418-10.279c-5.318 3.432-11.075 6.29-17.206 8.538z" fill="#111"/><path d="M61.259 107.186 44.84 125.107 10.844 94.805l16.419-17.921z" fill="#B0C3FF"/><path d="M44.84 126.107a.999.999 0 0 1-.665-.253L10.179 95.551a.997.997 0 0 1-.072-1.422l16.419-17.921a1 1 0 0 1 1.403-.071l33.996 30.302a.997.997 0 0 1 .072 1.422l-16.419 17.921a.997.997 0 0 1-.738.325zM12.266 94.733l32.503 28.972 15.068-16.446-32.503-28.972z" fill="#111"/><path d="M27.263 76.884 10.844 94.805c-2.576-2.13-3.497-5.512-2.097-7.757l16.419-17.921c-1.4 2.245-.479 5.627 2.097 7.757" fill="#B0C3FF"/><path d="M10.844 95.805a.995.995 0 0 1-.637-.229c-2.993-2.474-3.985-6.368-2.308-9.056a.986.986 0 0 1 .111-.146l16.419-17.921a1 1 0 0 1 1.585 1.204c-1.13 1.812-.302 4.648 1.886 6.457a1.003 1.003 0 0 1 .1 1.447L11.581 95.48a.995.995 0 0 1-.737.325zm-1.293-8.154c-.941 1.606-.395 3.972 1.24 5.731l15.063-16.441c-1.298-1.344-2.09-2.976-2.296-4.579z" fill="#111"/><path d="m58.44 138.167-16.419 17.921c-.651-10.776.288-21.212 2.819-30.98l16.419-17.921c-2.531 9.767-3.47 20.204-2.819 30.98" fill="#B0C3FF"/><path d="M42.02 157.087a1 1 0 0 1-.998-.939c-.659-10.92.299-21.448 2.85-31.291a1 1 0 0 1 .231-.425l16.419-17.921a1 1 0 0 1 1.706.926c-2.498 9.64-3.436 19.959-2.789 30.669.016.271-.078.536-.261.736l-16.419 17.921c-.194.21-.463.324-.739.324zm3.726-31.488c-2.268 8.854-3.223 18.277-2.845 28.048l14.516-15.844c-.532-9.392.135-18.491 1.985-27.109z" fill="#111"/><path d="m182.671 271.982-16.419 17.921c-11.162-1.948-22.357-5.438-33.239-10.37l16.419-17.921c10.882 4.932 22.077 8.422 33.239 10.37" fill="#B0C3FF"/><path d="M166.253 290.903a1 1 0 0 1-.172-.015c-11.262-1.966-22.526-5.48-33.48-10.444a.998.998 0 0 1-.325-1.586l16.419-17.921a.999.999 0 0 1 1.15-.235c10.8 4.895 21.902 8.359 32.998 10.296a1.001 1.001 0 0 1 .566 1.661L166.99 290.58c-.191.207-.46.323-.737.323zm-31.566-11.716c10.227 4.52 20.714 7.76 31.199 9.636l14.824-16.181c-10.439-1.974-20.865-5.273-31.03-9.821z" fill="#111"/><path d="m241.563 314.051-34.14 2.449-16.419 17.921 34.14-2.449c1.236-.091 2.256-.591 2.966-1.366l16.419-17.921c-.711.776-1.73 1.275-2.966 1.366z" fill="#B0C3FF"/><path d="M191.004 335.422a1 1 0 0 1-.737-1.676l16.418-17.921a1 1 0 0 1 .666-.322l34.14-2.449c.942-.07 1.736-.429 2.296-1.04l.004-.004a1 1 0 0 1 1.475 1.351l-.004.005-16.415 17.917c-.912.996-2.167 1.579-3.629 1.687l-34.142 2.449a.885.885 0 0 1-.072.003zm16.887-17.953-14.453 15.775 31.633-2.27c.942-.07 1.738-.43 2.3-1.043l13.591-14.835zm33.672-3.418h.01z" fill="#111"/><path d="m200.232 311.668-16.419 17.921-17.56-39.686 16.418-17.921z" fill="#B0C3FF"/><path d="M183.813 330.589a1.001 1.001 0 0 1-.915-.595l-17.561-39.686a1 1 0 0 1 .177-1.08l16.419-17.921a1 1 0 0 1 1.652.271l17.56 39.686a1 1 0 0 1-.177 1.08l-16.418 17.921a.999.999 0 0 1-.737.324zm-16.381-40.493 16.677 37.689 14.943-16.311-16.677-37.689z" fill="#111"/><path d="m207.423 316.501-16.419 17.921a5.662 5.662 0 0 1-1.049-.021c-2.569-.283-5.106-2.225-6.142-4.812l16.419-17.921c1.036 2.587 3.573 4.528 6.142 4.812.35.038.701.046 1.049.021" fill="#B0C3FF"/><path d="M190.599 335.436c-.249 0-.501-.014-.753-.042-2.948-.325-5.81-2.559-6.961-5.434a.998.998 0 0 1 .191-1.047l16.418-17.921a1.002 1.002 0 0 1 1.666.304c.889 2.219 3.078 3.942 5.324 4.19.294.032.584.039.866.018a1 1 0 0 1 .81 1.673l-16.419 17.921c-.172.188-.41.303-.664.322a7.53 7.53 0 0 1-.478.016zm-5.601-5.66c1.008 1.945 3.014 3.404 5.067 3.631.164.018.326.028.486.029l14.777-16.129c-2.123-.523-4.108-1.99-5.326-3.908z" fill="#111"/><path d="m97.716 224.25-16.419 17.921c-8.382-9.003-15.64-18.846-21.571-29.24l16.419-17.921c5.93 10.394 13.189 20.237 21.571 29.24" fill="#B0C3FF"/><path d="M81.297 243.171a.997.997 0 0 1-.732-.319c-8.43-9.054-15.733-18.955-21.707-29.426a1.001 1.001 0 0 1 .131-1.171l16.419-17.921a1.002 1.002 0 0 1 1.606.18c5.897 10.337 13.109 20.112 21.434 29.054a1 1 0 0 1 .005 1.357l-16.419 17.921a.997.997 0 0 1-.733.324l-.004.001zm-20.339-30.103c5.654 9.799 12.489 19.085 20.336 27.627l15.063-16.441c-7.848-8.526-14.703-17.789-20.396-27.562z" fill="#111"/><path d="m76.145 195.01-16.419 17.921-40.665-2.412 16.418-17.921z" fill="#B0C3FF"/><path d="M59.726 213.931c-.02 0-.039 0-.059-.002l-40.666-2.412a1 1 0 0 1-.678-1.674l16.419-17.921a.987.987 0 0 1 .797-.323l40.666 2.412a1 1 0 0 1 .678 1.674l-16.419 17.921a.999.999 0 0 1-.738.325zm-38.509-4.286 38.094 2.26 14.678-16.021-38.093-2.26z" fill="#111"/><path d="M17.689 152.271c-.573-1.873-.208-3.618.842-4.764L2.113 165.428c-1.05 1.147-1.415 2.891-.842 4.764l10.911 34.995 16.419-17.92z" fill="#B0C3FF"/><path d="M12.181 206.187a1.004 1.004 0 0 1-.955-.702L.316 170.49c-.658-2.152-.262-4.295 1.059-5.738l16.419-17.921a1 1 0 1 1 1.475 1.351l-.003.003c-.835.914-1.068 2.33-.622 3.789l10.91 34.994a1 1 0 0 1-.217.973l-16.419 17.92a.995.995 0 0 1-.737.326zm4.279-54.938L2.85 166.104c-.838.915-1.071 2.334-.623 3.796l10.392 33.33 14.856-16.214-10.739-34.447-.001-.005a6.94 6.94 0 0 1-.275-1.315z" fill="#111"/><path d="M35.479 192.598 19.06 210.519c-3.329-.34-6.009-2.549-6.88-5.331l16.42-17.921c.87 2.782 3.551 4.992 6.879 5.331" fill="#B0C3FF"/><path d="M19.06 211.519a1.16 1.16 0 0 1-.102-.005c-3.612-.369-6.719-2.791-7.732-6.028a1 1 0 0 1 .217-.974l16.419-17.921a1.002 1.002 0 0 1 1.692.376c.777 2.484 3.199 4.347 6.027 4.635a1 1 0 0 1 .636 1.67l-16.419 17.921a.996.996 0 0 1-.738.326zm-5.732-6.103c.877 2.079 2.931 3.636 5.348 4.043l14.876-16.237c-2.25-.693-4.156-2.196-5.252-4.147z" fill="#111"/><path d="m125.661 288.753-16.419 17.921c-.972 1.061-2.444 1.513-4.013 1.34-1.138-.125-2.328-.58-3.415-1.368l16.419-17.921c1.087.788 2.277 1.243 3.415 1.368 1.569.173 3.04-.279 4.013-1.34" fill="#B0C3FF"/><path d="M105.872 309.05c-.248 0-.499-.014-.752-.042-1.351-.149-2.697-.686-3.893-1.553a1 1 0 0 1-.15-1.485l16.419-17.921a1 1 0 0 1 1.324-.134c.915.664 1.93 1.073 2.937 1.184 1.284.141 2.437-.229 3.162-1.018l.004-.004a1 1 0 1 1 1.475 1.351c-.373.407 0 0-.001.001l-16.418 17.92c-1.007 1.1-2.476 1.701-4.107 1.701zm-2.501-2.623a5.855 5.855 0 0 0 1.967.594c1.286.142 2.441-.231 3.166-1.022l13.625-14.871a7.01 7.01 0 0 1-.591-.04 7.99 7.99 0 0 1-3.14-1.062z" fill="#111"/><path d="m83.68 257.992-16.419 17.921 14.036-33.742 16.419-17.921z" fill="#B0C3FF"/><path d="M67.26 276.913a1 1 0 0 1-.922-1.384l14.036-33.742c.045-.107.108-.206.186-.292l16.419-17.921a.999.999 0 0 1 1.66 1.06l-14.036 33.742a1.029 1.029 0 0 1-.186.292l-16.419 17.921a.999.999 0 0 1-.738.324zm14.893-34.196-11.781 28.319 12.451-13.59 11.781-28.319zm1.527 15.275h.01z" fill="#111"/><path d="m118.233 288.725-16.419 17.921-31.834-23.01 16.419-17.921z" fill="#B0C3FF"/><path d="M101.814 307.646a.997.997 0 0 1-.585-.189l-31.834-23.01a1 1 0 0 1-.151-1.486l16.419-17.921a1 1 0 0 1 1.323-.135l31.834 23.01a1 1 0 0 1 .151 1.486l-16.419 17.921a1.004 1.004 0 0 1-.738.324zm-30.338-24.163 30.202 21.831 15.059-16.436-30.202-21.831z" fill="#111"/><path d="M86.399 265.715 69.98 283.636c-2.7-1.959-3.889-5.309-2.719-7.723l16.419-17.921c-1.17 2.414.019 5.764 2.719 7.723" fill="#B0C3FF"/><path d="M69.979 284.636a.994.994 0 0 1-.587-.191c-3.112-2.257-4.415-6.113-3.032-8.968a.997.997 0 0 1 .163-.24l16.419-17.921a1 1 0 0 1 1.637 1.111c-.951 1.963.106 4.808 2.406 6.477a1 1 0 0 1 .15 1.485L70.716 284.31a.993.993 0 0 1-.737.326zm-1.875-8.163c-.758 1.747.005 4.134 1.779 5.789l15.067-16.445c-1.47-1.361-2.398-3.106-2.65-4.838z" fill="#111"/><path d="M333.794 165.264c.931 2.973-.524 5.602-3.347 6.069l-37.403 8.036c.672 10.778-.288 21.211-2.798 30.982l33.993 30.281c2.579 2.15 3.476 5.51 2.078 7.775l-16.402 26.489c-.915 1.467-2.622 2.137-4.476 1.933-.983-.108-2.007-.462-2.976-1.074l-38.898-22.374c-7.421 6.236-15.996 11.155-25.473 14.6l7.395 40.41c.681 2.987-1.025 5.444-3.923 5.658l-34.14 2.449a5.662 5.662 0 0 1-1.049-.021c-2.569-.283-5.106-2.225-6.142-4.812l-17.56-39.686c-11.162-1.948-22.357-5.438-33.239-10.37l-23.559 26.889c-.962 1.241-2.537 1.778-4.225 1.592-1.138-.125-2.328-.58-3.415-1.368l-31.834-23.01c-2.7-1.959-3.889-5.309-2.719-7.723l14.036-33.742c-8.382-9.003-15.64-18.846-21.571-29.24l-40.666-2.412c-3.329-.34-6.009-2.549-6.88-5.331L17.69 152.269c-.909-2.971.543-5.62 3.347-6.07l37.403-8.035c-.651-10.776.288-21.212 2.819-30.98l-33.996-30.3c-2.576-2.13-3.497-5.512-2.097-7.757l16.423-26.486c.914-1.482 2.614-2.149 4.47-1.944.981.108 2.006.46 2.98 1.064l38.88 22.393c7.418-6.256 15.993-11.175 25.471-14.621l-7.374-40.409c-.682-2.987 1.028-5.423 3.926-5.637l34.116-2.472a5.751 5.751 0 0 1 1.049.02c2.573.284 5.125 2.23 6.145 4.833l17.558 39.665c11.162 1.948 22.36 5.459 33.239 10.37l23.559-26.889c.958-1.236 2.525-1.767 4.206-1.582 1.145.126 2.343.585 3.437 1.378l31.853 22.991c2.7 1.958 3.891 5.33 2.719 7.723L253.79 93.287c8.358 8.98 15.619 18.844 21.549 29.238l40.663 2.392c3.35.342 6.03 2.551 6.901 5.333zm-147.401 75.284c46.028 5.075 78.573-27.426 72.691-72.591s-47.965-85.894-93.993-90.969S86.518 104.414 92.4 149.58c5.882 45.164 47.965 85.893 93.993 90.968" fill="#FFF"/><path d="M207.019 317.515a6.86 6.86 0 0 1-.754-.042c-2.947-.325-5.81-2.559-6.961-5.434l-17.331-39.165c-10.855-1.941-21.706-5.319-32.276-10.046l-23.071 26.332c-1.114 1.44-2.98 2.159-5.087 1.927-1.351-.149-2.697-.686-3.892-1.553l-31.833-23.009c-3.114-2.259-4.417-6.114-3.033-8.969l13.766-33.097c-8.119-8.79-15.18-18.367-21-28.483l-40.126-2.38c-3.654-.372-6.762-2.795-7.775-6.031l-10.911-34.996c-.556-1.817-.378-3.591.5-5 .791-1.269 2.085-2.105 3.644-2.355l36.515-7.846c-.548-10.395.375-20.427 2.747-29.841L26.598 77.631c-2.965-2.45-3.957-6.344-2.28-9.032L40.74 42.115c1.088-1.764 3.12-2.667 5.429-2.411 1.152.127 2.327.544 3.397 1.208L87.814 62.94c7.17-5.942 15.386-10.666 24.442-14.053l-7.223-39.582c-.397-1.734-.094-3.425.863-4.719.907-1.228 2.318-1.972 3.973-2.094L143.986.02c.403-.03.818-.022 1.231.024 2.97.327 5.835 2.573 6.966 5.462l17.326 39.138c10.786 1.929 21.638 5.308 32.275 10.047l23.073-26.333c1.107-1.432 2.969-2.149 5.067-1.917 1.358.15 2.711.69 3.915 1.563l31.851 22.99c3.125 2.267 4.427 6.124 3.032 8.973L254.96 93.081c8.09 8.762 15.144 18.338 20.978 28.48l40.123 2.36c3.668.373 6.784 2.796 7.797 6.033l10.893 35.015c.562 1.798.396 3.56-.467 4.963-.788 1.28-2.092 2.129-3.672 2.39l-36.519 7.847c.562 10.313-.355 20.345-2.728 29.842l33.54 29.878c2.943 2.453 3.927 6.351 2.265 9.047l-16.403 26.49c-1.097 1.759-3.13 2.655-5.436 2.401-1.16-.128-2.335-.55-3.4-1.222l-38.26-22.006c-7.187 5.935-15.402 10.651-24.443 14.034l7.244 39.583c.398 1.741.092 3.44-.87 4.741-.908 1.229-2.316 1.972-3.964 2.094l-34.142 2.449a7.55 7.55 0 0 1-.477.015zm-57.586-56.903c.139 0 .28.029.413.089 10.8 4.895 21.902 8.359 32.998 10.296a1 1 0 0 1 .743.581l17.56 39.686c.903 2.252 3.092 3.975 5.337 4.222.294.032.584.039.866.018l34.141-2.449c1.056-.078 1.945-.535 2.501-1.287.61-.825.794-1.944.519-3.15l-7.404-40.453c-.087-.48.184-.953.642-1.12 9.36-3.403 17.829-8.257 25.172-14.427a1 1 0 0 1 1.142-.101l38.898 22.374c.845.531 1.727.852 2.587.947 1.521.168 2.84-.381 3.519-1.469l16.4-26.486c1.124-1.822.303-4.669-1.869-6.48L289.58 211.1a1.001 1.001 0 0 1-.304-.995c2.5-9.731 3.431-20.05 2.769-30.671a1 1 0 0 1 .788-1.04l37.403-8.036c1.062-.177 1.855-.684 2.342-1.474.555-.903.648-2.081.261-3.319l-.001-.001-10.892-35.014c-.776-2.482-3.207-4.346-6.047-4.635l-40.62-2.388a.999.999 0 0 1-.81-.503c-5.914-10.365-13.118-20.14-21.413-29.052a.999.999 0 0 1-.191-1.065l14.034-33.763c.983-2.012-.075-4.855-2.383-6.53l-31.851-22.99c-.924-.671-1.947-1.083-2.96-1.195-1.392-.152-2.597.284-3.306 1.2l-23.598 26.935a.999.999 0 0 1-1.164.252c-10.873-4.908-21.975-8.372-32.999-10.296a.998.998 0 0 1-.742-.58L150.337 6.273c-.888-2.265-3.077-3.994-5.34-4.243a4.745 4.745 0 0 0-.866-.017l-34.117 2.472c-1.062.079-1.954.536-2.51 1.288-.605.818-.787 1.929-.513 3.129l7.382 40.451a.999.999 0 0 1-.642 1.119c-9.376 3.409-17.844 8.27-25.167 14.446-.322.271-.78.312-1.144.102L48.54 42.627c-.846-.523-1.733-.842-2.591-.936-1.548-.171-2.825.367-3.509 1.476L26.016 69.655c-1.132 1.814-.303 4.65 1.884 6.459l34.024 30.326a1 1 0 0 1 .303.997c-2.498 9.64-3.436 19.959-2.789 30.669a1 1 0 0 1-.788 1.038l-37.403 8.035c-1.045.169-1.827.666-2.314 1.448-.568.91-.669 2.101-.286 3.352l10.909 34.99c.777 2.483 3.199 4.346 6.027 4.634l40.624 2.409c.337.02.642.209.809.503 5.897 10.337 13.109 20.112 21.434 29.054a.999.999 0 0 1 .191 1.065l-14.036 33.742c-.975 2.015.083 4.86 2.383 6.529l31.833 23.009c.916.665 1.932 1.074 2.939 1.185 1.4.154 2.61-.288 3.325-1.211l23.597-26.936a.995.995 0 0 1 .751-.34zm46.385-18.537a87.11 87.11 0 0 1-9.534-.533c-46.385-5.114-88.947-46.31-94.875-91.833-2.852-21.9 3.09-41.623 16.731-55.535 13.963-14.24 34.227-20.696 57.061-18.179 46.385 5.114 88.946 46.311 94.875 91.834 2.852 21.899-3.09 41.622-16.731 55.535-11.987 12.223-28.616 18.711-47.527 18.711zM155.674 77.462c-18.375 0-34.505 6.279-46.107 18.112-13.202 13.465-18.947 32.599-16.176 53.877 5.817 44.664 47.587 85.084 93.111 90.104 22.214 2.449 41.89-3.799 55.414-17.592 13.203-13.465 18.947-32.599 16.176-53.876-5.817-44.664-47.586-85.085-93.111-90.104a84.71 84.71 0 0 0-9.307-.521z" fill="#111"/></svg></g></svg>