<svg xmlns="http://www.w3.org/2000/svg" viewBox="0 0 3000 3000" width="3000" height="3000"><g transform="translate(1362.0 964.8) rotate(0.0 613.8 856.1999999999999) scale(1.1997607515216906 1.1997452538108584)"><svg width="1023.204" height="1427.303" viewBox="0 0 1023.204 1427.303"><linearGradient id="a" gradientTransform="matrix(.99895866 -.04562452 .04562452 .99895866 -177.072 -5.774)" gradientUnits="userSpaceOnUse" x1="440.062" x2="920.267" y1="1363.094" y2="960.977"><stop offset="0" stop-color="#111"/><stop offset=".478" stop-color="#3658c1"/></linearGradient><path d="m424.538 259.931 28.573 32.542c-12.217-13.914-28.84-24.232-48.707-28.856-18.969-4.415-38.33-3.039-56.224 2.946l-28.573-32.542c17.894-5.985 37.255-7.361 56.224-2.946 19.866 4.624 36.489 14.942 48.707 28.856" fill="#b0c3ff"/><path d="M453.111 293.472a.996.996 0 0 1-.751-.34c-12.511-14.247-29.172-24.117-48.183-28.542-18.112-4.216-37.366-3.206-55.68 2.92a.994.994 0 0 1-1.068-.289l-28.573-32.542a.997.997 0 0 1 .433-1.608c18.667-6.244 38.296-7.271 56.769-2.972 19.421 4.521 36.444 14.607 49.23 29.17l28.573 32.542a1 1 0 0 1-.751 1.66zm-71.367-33.44c7.726 0 15.4.868 22.887 2.61 12.981 3.021 24.892 8.53 35.183 16.201l-16.026-18.252c-12.51-14.247-29.171-24.117-48.182-28.542-17.64-4.106-36.362-3.256-54.246 2.452l27.136 30.904c10.902-3.574 22.128-5.373 33.249-5.373z" fill="#111"/><path d="m229.293 892.795 28.573 32.542c-12.217-13.914-28.839-24.23-48.703-28.854-18.969-4.415-38.336-3.019-56.23 2.966l-28.573-32.542c17.894-5.985 37.261-7.381 56.23-2.966 19.865 4.624 36.487 14.94 48.703 28.854" fill="#3658c1"/><path d="M257.866 926.337a.996.996 0 0 1-.751-.34c-12.509-14.246-29.169-24.114-48.179-28.54-18.093-4.212-37.347-3.194-55.686 2.94a.995.995 0 0 1-1.068-.289l-28.573-32.542a.997.997 0 0 1 .433-1.608c18.691-6.251 38.324-7.286 56.773-2.992 19.42 4.521 36.443 14.607 49.229 29.168l28.572 32.542a1 1 0 0 1-.751 1.66zm-71.314-33.431c7.712 0 15.372.865 22.838 2.603 12.981 3.022 24.891 8.53 35.18 16.2l-16.026-18.253c-12.509-14.246-29.169-24.115-48.18-28.54-17.619-4.101-36.343-3.242-54.251 2.471l27.136 30.904c10.93-3.583 22.171-5.385 33.304-5.385z" fill="#111"/><path d="M926.631 125.558c50.29 11.705 78.326 62.394 62.651 113.204L822.421 779.635l-230.549-53.663c4.707 17.294 4.642 36.44-1.267 55.592-16.766 54.346-73.951 88.243-127.702 75.732-53.77-12.515-83.76-66.704-66.994-121.05 5.909-19.152 16.854-35.766 30.886-48.698l-230.549-53.663 71.887-233.02c12.051 12.955 28.026 22.556 46.994 26.971 53.751 12.511 110.936-21.386 127.702-75.732 16.76-54.327-13.249-108.52-67-121.031-18.969-4.415-38.33-3.039-56.224 2.946L391.495 1z" fill="#fff"/><path d="M485.522 860.883c-7.605 0-15.259-.846-22.845-2.611-25.734-5.99-46.996-21.63-59.87-44.04-13.427-23.372-16.216-51.172-7.854-78.279 5.576-18.075 15.859-34.582 29.794-47.854L196.02 634.861a1 1 0 0 1-.729-1.269l71.888-233.02a.998.998 0 0 1 1.687-.387c12.316 13.241 28.393 22.466 46.488 26.678 53.182 12.382 109.934-21.292 126.52-75.053 8.192-26.555 5.464-53.783-7.683-76.667-12.597-21.929-33.404-37.233-58.588-43.095-18.112-4.216-37.365-3.206-55.681 2.92a.999.999 0 0 1-1.273-1.243L390.539.705a.998.998 0 0 1 1.183-.679l535.137 124.558c24.082 5.605 43.979 20.243 56.027 41.217 12.566 21.875 15.178 47.892 7.352 73.256L823.378 779.93a1.001 1.001 0 0 1-1.182.679l-228.934-53.287c4.466 17.616 3.885 36.435-1.7 54.537-14.524 47.079-59.322 79.021-106.039 79.023zM197.519 633.156l229.504 53.419a1 1 0 0 1 .451 1.709c-14.371 13.245-24.956 29.932-30.608 48.258-8.197 26.57-5.472 53.807 7.676 76.693 12.594 21.923 33.401 37.226 58.589 43.088 53.186 12.38 109.934-21.292 126.52-75.053 5.644-18.293 6.078-37.324 1.258-55.035a.998.998 0 0 1 1.191-1.237l229.642 53.452 166.585-539.983c7.66-24.828 5.112-50.281-7.175-71.67-11.769-20.487-31.211-34.787-54.746-40.265L392.175 2.185 321.13 232.474c18.112-5.706 37.063-6.531 54.928-2.374 25.73 5.989 46.992 21.632 59.869 44.047 13.426 23.371 16.218 51.162 7.859 78.253-14.524 47.079-59.321 79.022-106.038 79.023-7.606 0-15.26-.846-22.846-2.612-17.911-4.169-33.889-13.15-46.316-26.015z" fill="#111"/><path d="m547.326 362.355-67.136-15.627-39.691 128.656 67.136 15.627z" fill="#b0c3ff"/><path d="M507.636 492.011a.997.997 0 0 1-.228-.026l-67.136-15.626a1 1 0 0 1-.729-1.269l39.69-128.656a.999.999 0 0 1 1.182-.679l67.136 15.626a1 1 0 0 1 .729 1.269l-39.69 128.656a.999.999 0 0 1-.954.705zm-65.865-17.357 65.184 15.172 39.1-126.741-65.184-15.172z" fill="#111"/><path d="m664.421 324.193-67.136-15.626-58.52 189.69 67.136 15.626z" fill="#b0c3ff"/><path d="M605.902 514.883a.997.997 0 0 1-.228-.026l-67.136-15.626a1 1 0 0 1-.73-1.269l58.52-189.69a1.002 1.002 0 0 1 1.183-.679l67.137 15.626a1 1 0 0 1 .73 1.269l-58.521 189.69a.999.999 0 0 1-.954.705zm-65.865-17.357 65.184 15.172 57.93-187.774-65.185-15.172z" fill="#111"/><path d="m773.723 311.293-67.118-15.623-69.556 225.463 67.118 15.623z" fill="#b0c3ff"/><path d="M704.168 537.756a.997.997 0 0 1-.228-.026l-67.117-15.622a1 1 0 0 1-.729-1.269l69.556-225.463a1 1 0 0 1 1.182-.679l67.117 15.622a1 1 0 0 1 .729 1.269l-69.556 225.463a.999.999 0 0 1-.954.705zm-65.847-17.353 65.165 15.167 68.965-223.547-65.165-15.167z" fill="#111"/><path d="m1000.753 185.083-28.573-32.541c19.491 22.199 26.985 54.186 17.102 86.221L822.421 779.636l28.573 32.542 166.861-540.873c9.883-32.035 2.39-64.022-17.102-86.221z" fill="#b0c3ff"/><path d="M850.994 813.177c-.284 0-.56-.122-.752-.34l-28.571-32.542a1 1 0 0 1-.204-.955l166.86-540.873c9.438-30.591 3.121-62.467-16.897-85.267a1 1 0 1 1 1.502-1.319l28.573 32.542c20.48 23.325 26.95 55.914 17.306 87.176L851.95 812.472a.999.999 0 0 1-.955.705zm-27.452-33.781 27.023 30.778L1016.9 271.009c9.438-30.592 3.12-62.467-16.897-85.267l-16.375-18.649c11.743 21.25 14.303 47.03 6.609 71.964L823.542 779.395z" fill="#111"/><path d="M822.421 779.635 655.56 1320.508c-15.675 50.809-69.135 82.529-119.424 70.824L1 1266.773l28.573 32.542 535.136 124.558c50.29 11.706 103.749-20.014 119.424-70.824l166.861-540.872z" fill="url(#a)"/><path d="M585.862 1427.291a94.228 94.228 0 0 1-21.38-2.444L29.346 1300.289a.998.998 0 0 1-.524-.313L.248 1267.433a1.002 1.002 0 0 1 .979-1.634l535.137 124.559c49.694 11.568 102.741-19.899 118.241-70.146L821.466 779.34a1.002 1.002 0 0 1 1.707-.365l28.573 32.542c.229.261.306.623.204.955l-166.86 540.872c-13.592 44.056-55.511 73.947-99.228 73.947zm-555.75-128.877 534.823 124.485c49.697 11.567 102.742-19.897 118.242-70.146l166.696-540.337-27.023-30.778-166.335 539.164c-15.803 51.227-69.902 83.305-120.605 71.503L3.805 1268.453z" fill="#111"/><path d="M822.421 779.635 655.56 1320.507c-15.675 50.81-69.135 82.529-119.424 70.824L1 1266.773l71.888-233.021c12.051 12.955 28.025 22.557 46.994 26.972 53.751 12.511 110.936-21.387 127.702-75.732 16.766-54.347-13.243-108.54-66.994-121.051-18.969-4.415-38.336-3.019-56.23 2.966l71.887-233.02 230.549 53.663c-14.032 12.932-24.978 29.546-30.886 48.698-16.766 54.346 13.224 108.534 66.994 121.05 53.751 12.511 110.936-21.386 127.702-75.732 5.909-19.152 5.974-38.298 1.267-55.592l230.549 53.663z" fill="#b0c3ff"/><path d="M557.288 1394.75a94.217 94.217 0 0 1-21.378-2.444L.773 1267.747a1 1 0 0 1-.729-1.269l71.888-233.021a.997.997 0 0 1 .732-.68.996.996 0 0 1 .955.294c12.317 13.241 28.393 22.467 46.488 26.679 53.184 12.377 109.935-21.291 126.52-75.054 8.196-26.565 5.469-53.801-7.68-76.689-12.596-21.927-33.402-37.231-58.585-43.093-18.092-4.212-37.346-3.194-55.686 2.94a1 1 0 0 1-1.273-1.243l71.888-233.02a1 1 0 0 1 1.182-.679l230.549 53.663a1 1 0 0 1 .451 1.709c-14.371 13.245-24.956 29.932-30.609 48.258-8.196 26.57-5.471 53.807 7.677 76.692 12.595 21.923 33.401 37.226 58.589 43.088 53.186 12.38 109.934-21.292 126.521-75.053 5.643-18.293 6.077-37.324 1.257-55.035a.998.998 0 0 1 1.191-1.237l230.549 53.663a1 1 0 0 1 .729 1.269l-166.86 540.872c-13.592 44.055-55.511 73.947-99.229 73.947zM2.271 1266.043l534.092 124.315c49.694 11.568 102.741-19.899 118.241-70.146L821.15 780.365l-227.889-53.043c4.466 17.617 3.885 36.435-1.699 54.537-14.525 47.079-59.322 79.021-106.04 79.023-7.605 0-15.259-.846-22.845-2.611-25.734-5.99-46.996-21.63-59.87-44.04-13.427-23.372-16.216-51.172-7.853-78.279 5.575-18.075 15.858-34.582 29.792-47.854l-227.818-53.027-71.045 230.289c18.136-5.715 37.087-6.547 54.933-2.394 25.729 5.989 46.99 21.631 59.866 44.045 13.428 23.375 16.218 51.173 7.856 78.275-16.889 54.744-74.707 89.021-128.884 76.411-17.911-4.168-33.889-13.15-46.316-26.016z" fill="#111"/><path d="M510.073 904.234c-54.859-12.769-113.205 21.832-130.31 77.28l-.035.113c51.86 14.741 80.227 68.382 63.689 122.192 1.55.441 3.118.847 4.708 1.217 54.859 12.769 113.204-21.831 130.31-77.28 17.106-55.447-13.503-110.754-68.362-123.523" fill="#3658c1"/><path d="M471.206 1108.675c-7.76 0-15.568-.863-23.308-2.665a101.814 101.814 0 0 1-4.755-1.229.996.996 0 0 1-.682-1.255c8.07-26.257 5.654-53.34-6.803-76.26-11.896-21.89-31.856-37.756-56.203-44.677a.998.998 0 0 1-.686-1.247c0-.003.036-.12.038-.123 17.231-55.852 76.217-90.822 131.492-77.958 26.25 6.11 47.939 22.067 61.075 44.932 13.699 23.848 16.546 52.209 8.016 79.859-14.817 48.032-60.521 80.624-108.185 80.624zm-26.536-5.545c1.233.337 2.468.649 3.682.933a100.838 100.838 0 0 0 22.874 2.614c46.81.002 91.695-32.021 106.255-79.216 8.364-27.114 5.58-54.912-7.84-78.273-12.855-22.378-34.091-37.998-59.794-43.98-53.992-12.571-111.594 21.374-128.859 75.742 24.421 7.214 44.434 23.29 56.429 45.36 12.561 23.11 15.125 50.352 7.254 76.82z" fill="#111"/><path d="M375.04 980.414c-54.859-12.769-113.205 21.832-130.31 77.28-17.106 55.448 13.503 110.755 68.362 123.524s113.186-21.837 130.292-77.285l.034-.113c16.538-53.811-11.829-107.451-63.689-122.192a101.43 101.43 0 0 0-4.688-1.213" fill="#fff"/><path d="M336.164 1184.855a102.58 102.58 0 0 1-23.299-2.664c-26.25-6.109-47.94-22.066-61.075-44.932-13.7-23.848-16.547-52.209-8.016-79.86 17.23-55.853 76.218-90.826 131.492-77.958 1.541.357 3.134.77 4.734 1.224 24.869 7.068 45.26 23.279 57.415 45.646 12.716 23.396 15.187 51.027 6.957 77.803l-.03.104c-14.821 48.041-60.523 80.634-108.179 80.638zm15.774-206.082c-46.81 0-91.694 32.021-106.254 79.216-8.365 27.114-5.581 54.913 7.84 78.274 12.855 22.379 34.091 37.998 59.794 43.98 54.26 12.627 112.182-21.734 129.11-76.606l.027-.097c8.075-26.272 5.659-53.355-6.798-76.275-11.896-21.89-31.856-37.756-56.203-44.677-1.57-.445-3.132-.849-4.642-1.2a100.848 100.848 0 0 0-22.875-2.615z" fill="#111"/><path d="m370.152 1020.437-11.148-2.595-4.436 14.379c-8.049-.879-15.016.379-20.887 3.797-5.977 3.497-10.078 8.818-12.278 15.95-2.164 7.016-1.615 13.337 1.669 18.969 3.265 5.628 9.565 11.051 18.904 16.249 6.638 3.928 11.089 7.636 13.327 11.078 2.251 3.465 2.756 7.208 1.522 11.208-1.461 4.735-4.414 8.067-8.856 9.974s-9.793 2.113-16.084.648c-6.406-1.491-10.876-4.272-13.368-8.353s-2.802-9.123-.935-15.174l-13.289-3.093c-2.653 8.601-2.234 16.01 1.264 22.211 3.42 6.057 9.337 10.458 17.666 13.288l-3.869 12.543 11.148 2.595 3.84-12.446.14.012c9.033 1.211 16.676.153 22.916-3.2 6.241-3.354 10.494-8.702 12.759-16.046 1.425-4.619 1.69-8.866.82-12.756s-2.961-7.608-6.254-11.15c-3.312-3.547-8.283-7.231-14.92-11.096-6.637-3.864-11.156-7.485-13.519-10.853-2.382-3.372-2.873-7.297-1.501-11.742 1.479-4.794 4.147-8.191 7.991-10.155 3.831-1.988 8.621-2.302 14.319-.976 5.45 1.268 9.231 4.096 11.327 8.458 2.092 4.381 2.19 9.644.294 15.79l-.137.445 13.212 3.075.157-.44c2.749-8.909 2.681-16.465-.226-22.652-2.894-6.162-8.219-10.696-15.959-13.574l-.038-.009 4.43-14.36" fill="#3658c1"/><path d="M330.504 1145.11c-.075 0-.151-.009-.228-.026l-11.147-2.595a1 1 0 0 1-.729-1.269l3.585-11.622c-8.104-2.93-13.921-7.442-17.298-13.422-3.621-6.42-4.075-14.157-1.348-22.997a1 1 0 0 1 1.182-.679l13.289 3.093a1 1 0 0 1 .729 1.269c-1.791 5.809-1.519 10.505.834 14.357 2.33 3.817 6.616 6.476 12.74 7.9 6.057 1.409 11.259 1.21 15.463-.593 4.196-1.803 6.909-4.861 8.295-9.351 1.154-3.743.695-7.135-1.406-10.368-2.153-3.313-6.526-6.934-12.996-10.762-9.426-5.245-15.913-10.837-19.261-16.607-3.409-5.847-4.002-12.498-1.761-19.766 2.268-7.345 6.55-12.902 12.729-16.519 5.821-3.391 12.77-4.737 20.678-4.012l4.195-13.596a1 1 0 0 1 1.182-.679l11.147 2.595a1 1 0 0 1 .73 1.269l-4.153 13.461c7.508 2.976 12.777 7.603 15.67 13.762 2.999 6.381 3.092 14.244.277 23.371l-.172.481c-.171.479-.673.75-1.168.638l-13.213-3.076a.996.996 0 0 1-.641-.477.996.996 0 0 1-.088-.793l.138-.444c1.81-5.868 1.729-10.937-.241-15.063-1.951-4.06-5.535-6.724-10.651-7.915-5.459-1.271-10.045-.971-13.632.89-3.583 1.83-6.103 5.047-7.495 9.563-1.292 4.188-.847 7.743 1.361 10.869 2.268 3.229 6.71 6.783 13.206 10.565 6.81 3.965 11.765 7.654 15.147 11.277 3.41 3.668 5.596 7.575 6.499 11.614.908 4.057.625 8.521-.84 13.27-2.335 7.569-6.79 13.165-13.241 16.632-6.229 3.345-13.903 4.488-22.82 3.4l-3.594 11.647a.999.999 0 0 1-.954.705zm-9.877-4.325 9.195 2.14 3.565-11.555c.139-.449.584-.751 1.039-.701l.14.012c8.84 1.183 16.348.146 22.358-3.085 5.973-3.209 10.103-8.41 12.278-15.46 1.36-4.411 1.629-8.53.799-12.242-.825-3.689-2.848-7.285-6.011-10.688-3.201-3.429-8.145-7.101-14.69-10.912-6.748-3.929-11.402-7.678-13.835-11.143-2.553-3.613-3.104-7.857-1.638-12.61 1.558-5.051 4.414-8.668 8.49-10.751 4.017-2.083 9.067-2.44 15.001-1.059 5.735 1.335 9.773 4.362 12.002 8.998 2.127 4.456 2.303 9.813.522 15.936l11.283 2.627c2.525-8.422 2.425-15.662-.313-21.485-2.768-5.894-7.945-10.287-15.388-13.058a1.038 1.038 0 0 1-.552-.448 1.013 1.013 0 0 1-.107-.798l4.113-13.334-9.195-2.14-4.162 13.487a1.011 1.011 0 0 1-1.063.699c-7.81-.855-14.631.38-20.275 3.668-5.731 3.354-9.711 8.529-11.826 15.381-2.069 6.711-1.539 12.824 1.579 18.17 3.165 5.457 9.397 10.799 18.526 15.879 6.761 3.999 11.354 7.832 13.679 11.406 2.41 3.71 2.961 7.764 1.639 12.048-1.546 5.013-4.714 8.578-9.416 10.599-4.603 1.976-10.225 2.213-16.705.702-6.666-1.551-11.374-4.513-13.994-8.805-2.487-4.073-2.936-9.103-1.337-14.961l-11.344-2.64c-2.261 7.919-1.776 14.823 1.444 20.532 3.253 5.761 9.012 10.079 17.116 12.832a1 1 0 0 1 .634 1.242l-3.553 11.517z" fill="#111"/></svg></g><g transform="translate(820.8 340.8) rotate(0.0 541.1999999999999 534.6) scale(1.1991797185295645 1.199204568013809)"><svg width="902.617" height="891.591" viewBox="0 0 902.617 891.591"><linearGradient id="b" gradientTransform="matrix(.99895866 -.04562452 .04562452 .99895866 -206.149 44.304)" gradientUnits="userSpaceOnUse" x1="788.478" x2="866.063" y1="574.954" y2="770.254"><stop offset="0" stop-color="#111"/><stop offset="1" stop-color="#3658c1"/></linearGradient><path d="m391.528 764.316 33.283-15.476c4.591 18.483 4.443 38.286-1.459 57.383-8.632 27.932-27.85 48.918-51.716 60.015l-33.283 15.476c23.866-11.097 43.083-32.083 51.716-60.015 5.902-19.097 6.05-38.901 1.459-57.383" fill="#3658c1"/><path d="M338.355 882.714a1 1 0 0 1-.422-1.907c24.718-11.494 42.895-32.59 51.181-59.404 5.646-18.266 6.145-37.923 1.444-56.847a1 1 0 0 1 .549-1.148l33.283-15.477c.271-.125.583-.124.853.004.27.129.467.372.54.661 4.789 19.276 4.279 39.305-1.474 57.92-8.456 27.36-27.012 48.891-52.25 60.626l-33.283 15.476c-.137.063-.28.093-.421.093zm54.34-117.838c4.578 19.03 4.003 38.762-1.67 57.118-6.422 20.781-18.67 38.198-35.248 50.515l15.438-7.178c24.719-11.494 42.896-32.591 51.182-59.404 5.528-17.888 6.122-37.108 1.73-55.667z" fill="#111"/><path d="m690.914 615.94 33.283-15.477-71.807 232.349-33.283 15.477z" fill="url(#b)"/><path d="M619.107 849.289a1 1 0 0 1-.956-1.296l71.807-232.349a.996.996 0 0 1 .534-.611l33.283-15.476a1 1 0 0 1 1.377 1.202l-71.807 232.349a.996.996 0 0 1-.534.611l-33.283 15.476a.988.988 0 0 1-.421.093zm72.631-232.629-71.011 229.773 30.838-14.339 71.011-229.773z" fill="#111"/><path d="m742.329 449.574 33.283-15.476c17.679-3.996 36.811-3.034 55.535 3.875 53.058 19.578 82.521 79.375 65.774 133.565-8.629 27.922-27.852 48.907-51.722 60.006l-33.283 15.476c23.869-11.099 43.092-32.084 51.722-60.006 16.747-54.19-12.715-113.988-65.774-133.565-18.724-6.909-37.856-7.871-55.535-3.875" fill="#3658c1"/><path d="M811.917 648.02a1 1 0 0 1-.422-1.907c24.726-11.497 42.904-32.59 51.188-59.395 16.564-53.598-12.668-112.962-65.165-132.332-17.88-6.597-36.887-7.925-54.968-3.837a1 1 0 0 1-.643-1.882l33.283-15.477c.064-.03.132-.053.201-.069 18.458-4.172 37.858-2.819 56.102 3.913 53.477 19.732 83.256 80.202 66.383 134.799-8.453 27.351-27.011 48.878-52.255 60.617l-33.283 15.477c-.137.063-.28.093-.421.093zm-48.502-201.792c11.71 0 23.475 2.105 34.795 6.283 53.477 19.731 83.256 80.202 66.383 134.799-6.42 20.772-18.668 38.185-35.247 50.502l15.431-7.175c24.726-11.497 42.905-32.59 51.189-59.395 16.563-53.598-12.669-112.961-65.165-132.332-17.847-6.584-36.815-7.92-54.864-3.861l-26.085 12.129a96.905 96.905 0 0 1 13.563-.951z" fill="#111"/><path d="m814.136 217.225 33.283-15.477-71.807 232.349-33.283 15.477z" fill="#3658c1"/><path d="M742.329 450.574a1 1 0 0 1-.956-1.296l71.807-232.349a.996.996 0 0 1 .534-.611l33.283-15.477a1 1 0 0 1 1.378 1.202l-71.807 232.349a.996.996 0 0 1-.534.611l-33.283 15.477a.996.996 0 0 1-.422.093zm72.631-232.629-71.011 229.773 30.838-14.34 71.011-229.773-30.839 14.34z" fill="#111"/><path d="M319.177 6.835c-24.052-8.875-48.874-7.289-69.854 2.467L216.04 24.778c20.98-9.756 45.802-11.341 69.854-2.467l528.242 194.913 33.283-15.476z" fill="#fff"/><path d="M814.136 218.225c-.117 0-.234-.021-.346-.062L285.548 23.25c-22.958-8.471-47.493-7.604-69.086 2.436a1 1 0 0 1-.843-1.814l33.282-15.477c22.081-10.267 47.161-11.155 70.622-2.498L847.765 200.81a1.001 1.001 0 0 1 .075 1.845l-33.283 15.477a1.001 1.001 0 0 1-.422.093zM253.624 15.469c10.917 0 21.934 1.963 32.616 5.904l527.851 194.769 30.727-14.288L318.831 7.774c-22.958-8.47-47.492-7.605-69.086 2.435l-16.142 7.506a90.075 90.075 0 0 1 20.021-2.245z" fill="#111"/><path d="m814.136 217.225-71.807 232.349c17.679-3.996 36.811-3.034 55.535 3.875 53.058 19.578 82.521 79.375 65.774 133.565-16.741 54.171-73.356 82.229-126.414 62.651-18.724-6.909-34.467-18.837-46.31-33.726l-71.807 232.349-227.579-83.973c4.591 18.483 4.443 38.286-1.459 57.383-16.747 54.19-73.337 82.236-126.414 62.651-53.058-19.578-82.521-79.375-65.774-133.565 5.902-19.097 16.79-34.938 30.697-46.595L1 620.217 167.674 80.901c15.657-50.663 68.578-76.907 118.22-58.59l528.242 194.913z" fill="#b0c3ff"/><path d="M298.193 891.617c-11.657 0-23.43-2.102-34.884-6.329-53.477-19.731-83.256-80.202-66.383-134.799 5.577-18.044 15.831-33.896 29.705-45.953L.654 621.155a1 1 0 0 1-.609-1.233L166.719 80.606c7.669-24.816 24.358-44.64 46.991-55.819 22.55-11.139 48.309-12.352 72.531-3.413l528.242 194.913a1 1 0 0 1 .609 1.233L743.79 448.234c17.952-3.721 36.73-2.252 54.42 4.277 53.477 19.731 83.256 80.202 66.383 134.799-8.193 26.511-26.027 47.691-50.215 59.639-24.101 11.906-51.625 13.203-77.5 3.655-17.638-6.508-33.354-17.752-45.562-32.578l-71.253 230.558a1.002 1.002 0 0 1-1.302.643l-225.825-83.325c4.314 18.712 3.66 38.066-1.911 56.093-8.196 26.521-26.027 47.704-50.209 59.648-13.433 6.635-27.936 9.974-42.622 9.974zM2.235 619.607l226.689 83.645a1 1 0 0 1 .296 1.705c-14.242 11.938-24.748 27.888-30.384 46.125-16.564 53.598 12.668 112.962 65.165 132.332 25.365 9.359 52.329 8.095 75.928-3.563 23.685-11.699 41.152-32.456 49.184-58.446 5.646-18.266 6.145-37.923 1.444-56.847a1.001 1.001 0 0 1 1.317-1.179l226.588 83.607 71.496-231.341a1.002 1.002 0 0 1 1.739-.328c12.14 15.263 28.002 26.816 45.873 33.411 25.355 9.355 52.317 8.087 75.923-3.572 23.691-11.702 41.16-32.455 49.189-58.437 16.564-53.598-12.668-112.962-65.165-132.332-17.88-6.597-36.887-7.925-54.968-3.837a1.001 1.001 0 0 1-1.177-1.271l71.527-231.444L285.548 23.25c-23.703-8.745-48.9-7.563-70.953 3.331-22.136 10.934-38.46 30.33-45.965 54.617z" fill="#111"/><path d="M437.816 308.786c-18.989-7.007-39.245 3.016-45.243 22.422-5.991 19.387 4.557 40.776 23.546 47.783 18.988 7.006 39.225-3.023 45.216-22.41 5.997-19.406-4.532-40.788-23.52-47.794" fill="#3658c1"/><path d="M428.477 382.233c-4.245 0-8.533-.766-12.704-2.305-19.454-7.178-30.29-29.166-24.156-49.016 2.986-9.663 9.484-17.381 18.297-21.734 8.783-4.338 18.814-4.812 28.248-1.33 19.443 7.174 30.267 29.167 24.129 49.027-2.985 9.658-9.48 17.374-18.289 21.724a34.948 34.948 0 0 1-15.525 3.633zm-3.023-74.689a32.978 32.978 0 0 0-14.654 3.428c-8.315 4.107-14.449 11.398-17.271 20.531-5.826 18.851 4.464 39.733 22.937 46.549 8.906 3.286 18.371 2.844 26.651-1.246 8.311-4.105 14.442-11.394 17.263-20.522 5.83-18.861-4.448-39.748-22.911-46.561-3.946-1.456-8.002-2.18-12.016-2.18z" fill="#111"/><path d="M409.83 399.34c-36.071-13.31-74.182 1.073-92.792 32.443l148.567 54.819c2.624-37.268-19.723-73.959-55.775-87.261" fill="#3658c1"/><path d="M465.605 487.602c-.117 0-.234-.021-.346-.062l-148.567-54.819a1 1 0 0 1-.513-1.449c19.36-32.632 58.015-46.147 93.998-32.87 35.948 13.264 59.151 49.562 56.426 88.27a.999.999 0 0 1-.997.93zM318.52 431.264l146.171 53.935c2.043-37.323-20.502-72.114-55.207-84.92-34.686-12.798-71.909-.057-90.964 30.985z" fill="#111"/><path d="M294.225 317.675c-18.989-7.007-39.232 3.042-45.223 22.429s4.532 40.788 23.521 47.794c19.007 7.013 39.25-3.035 45.242-22.422 5.991-19.387-4.532-40.788-23.539-47.801" fill="#fff"/><path d="M284.887 391.143c-4.248 0-8.537-.766-12.71-2.306-19.443-7.174-30.268-29.168-24.13-49.028 2.987-9.664 9.487-17.384 18.303-21.739 8.778-4.336 18.801-4.809 28.222-1.333 19.453 7.178 30.286 29.175 24.149 49.035-2.986 9.663-9.485 17.382-18.299 21.735a34.968 34.968 0 0 1-15.534 3.635zm-3.007-74.706a32.954 32.954 0 0 0-14.645 3.426c-8.319 4.109-14.455 11.402-17.277 20.537-5.829 18.861 4.449 39.748 22.912 46.561 8.912 3.289 18.382 2.846 26.666-1.247 8.317-4.108 14.452-11.4 17.274-20.533 5.829-18.86-4.46-39.75-22.93-46.568-3.94-1.454-7.99-2.177-11.999-2.177z" fill="#111"/><path d="M266.233 408.248c-36.052-13.302-74.181 1.075-92.772 32.45l148.567 54.819c2.604-37.274-19.723-73.959-55.794-87.268" fill="#fff"/><path d="M322.028 496.517c-.117 0-.234-.021-.346-.062l-148.567-54.819a1 1 0 0 1-.514-1.448c9.2-15.525 23.534-27.391 40.362-33.411 17.331-6.2 35.871-6.015 53.617.533 35.938 13.261 59.15 49.562 56.446 88.276a.999.999 0 0 1-.998.93zm-147.086-56.338 146.171 53.935c2.024-37.328-20.533-72.122-55.226-84.927-34.691-12.8-71.908-.055-90.945 30.992z" fill="#111"/><path d="M547.059 410.967c-18.989-7.007-39.25 3.035-45.242 22.422-5.991 19.387 4.551 40.794 23.539 47.801 18.988 7.006 39.25-3.035 45.242-22.422 5.991-19.387-4.552-40.795-23.539-47.801" fill="#fff"/><path d="M537.71 484.432c-4.245 0-8.531-.765-12.7-2.304-19.453-7.178-30.286-29.174-24.149-49.034 2.985-9.658 9.484-17.375 18.301-21.73 8.785-4.339 18.815-4.813 28.243-1.334 19.454 7.178 30.287 29.174 24.149 49.034-2.985 9.658-9.484 17.375-18.301 21.73a34.989 34.989 0 0 1-15.543 3.638zm-3.004-74.705a32.986 32.986 0 0 0-14.658 3.43c-8.319 4.109-14.455 11.399-17.275 20.528-5.829 18.861 4.458 39.751 22.93 46.567 8.908 3.286 18.377 2.842 26.665-1.252 8.319-4.109 14.455-11.399 17.275-20.527 5.83-18.861-4.457-39.751-22.93-46.567-3.942-1.455-7.995-2.178-12.006-2.178z" fill="#111"/><path d="M519.067 501.54c-36.071-13.31-74.182 1.074-92.772 32.45l148.548 54.812c2.622-37.267-19.706-73.952-55.776-87.262" fill="#fff"/><path d="M574.843 589.802c-.117 0-.234-.021-.346-.062l-148.548-54.812a1 1 0 0 1-.514-1.448c9.2-15.527 23.532-27.394 40.354-33.414 17.327-6.2 35.87-6.016 53.625.536 35.947 13.264 59.151 49.562 56.427 88.27a.999.999 0 0 1-.997.93zM427.776 533.47l146.153 53.928c2.042-37.323-20.504-72.115-55.208-84.92-34.693-12.801-71.91-.057-90.945 30.992z" fill="#111"/></svg></g><g transform="translate(468.0 1537.2) rotate(0.0 505.19999999999993 449.4) scale(1.199709334080579 1.1993386824087653)"><svg width="842.204" height="749.413" viewBox="0 0 842.204 749.413"><linearGradient id="c" gradientTransform="matrix(.99895866 -.04562452 .04562452 .99895866 -148.048 59.93)" gradientUnits="userSpaceOnUse" x1="130.737" x2="714.722" y1="242.735" y2="687.665"><stop offset="0" stop-color="#b0c3ff"/><stop offset=".256" stop-color="#fff"/><stop offset=".832" stop-color="#b0c3ff"/></linearGradient><path d="m449.07 156.193-31.953 42.301c10.524-13.933 16.771-31.346 17.047-50.841.268-18.897-5.122-37.234-14.662-53.355l31.953-42.301c9.54 16.121 14.931 34.459 14.662 53.355-.277 19.496-6.523 36.909-17.047 50.841" fill="#b0c3ff"/><path d="M417.116 199.494a.998.998 0 0 1-.797-1.602c10.755-14.239 16.581-31.616 16.845-50.253.257-18.075-4.765-36.344-14.522-52.832a.998.998 0 0 1 .063-1.112l31.953-42.302a.998.998 0 0 1 1.658.093c9.945 16.805 15.064 35.436 14.802 53.879-.271 19.065-6.235 36.849-17.25 51.43l-.798-.603.798.603-31.953 42.301a.998.998 0 0 1-.799.397zm3.587-105.127c9.722 16.653 14.72 35.068 14.461 53.3-.18 12.65-2.866 24.735-7.871 35.695l20.979-27.772c10.755-14.239 16.581-31.616 16.845-50.253.25-17.604-4.507-35.392-13.77-51.54l-30.645 40.569z" fill="#111"/><path d="m824.147 463.962-31.953 42.301c-18.41 24.372-49.91 38.087-85.447 33.676-19.683-2.443-37.958-10.136-53.377-21.409l31.953-42.301c15.419 11.274 33.694 18.967 53.377 21.409 35.536 4.41 67.037-9.304 85.447-33.676" fill="#b0c3ff"/><path d="M719.853 541.757c-4.355 0-8.771-.271-13.228-.825-19.154-2.377-37.773-9.844-53.844-21.594a1 1 0 0 1-.208-1.41l31.953-42.302a1 1 0 0 1 1.388-.205c15.797 11.551 34.093 18.89 52.91 21.225 33.993 4.212 65.594-8.223 84.525-33.286a.999.999 0 1 1 1.595 1.205l-31.953 42.302c-16.88 22.347-43.578 34.891-73.139 34.891zm-65.069-23.438c15.608 11.206 33.597 18.333 52.087 20.628 33.996 4.214 65.594-8.225 84.525-33.286l20.893-27.659c-19.332 16.503-45.736 24.102-73.711 20.628-18.838-2.337-37.158-9.599-53.047-21.017l-30.748 40.706z" fill="#111"/><path d="M126.214 637.128c-52.216-6.48-93.964-52.367-93.252-102.496L40.54 1 8.587 43.302 1.009 576.933c-.712 50.13 41.036 96.016 93.252 102.497l555.845 68.983 31.953-42.302z" fill="url(#c)"/><path d="M650.106 749.413c-.041 0-.082-.003-.123-.008L94.138 680.422C41.518 673.891-.709 627.46.009 576.918L7.586 43.287a.997.997 0 0 1 .202-.588L39.742.397a.999.999 0 0 1 1.798.617l-7.578 533.632c-.704 49.553 40.736 95.081 92.375 101.489l555.845 68.983a1 1 0 0 1 .675 1.595l-31.953 42.302a1 1 0 0 1-.798.397zM9.582 43.643 2.009 576.947c-.704 49.553 40.736 95.081 92.375 101.49l555.272 68.912 30.561-40.459-554.126-68.771c-52.621-6.529-94.847-52.961-94.129-103.503L39.496 4.04z" fill="#111"/><path d="m690.926 81.716-3.264 229.881c15.684-7.413 34.113-10.551 53.796-8.108 55.851 6.931 100.498 56.004 99.737 109.623s-46.643 91.457-102.494 84.526c-19.683-2.443-37.958-10.136-53.377-21.409l-3.264 229.883-555.845-68.983c-52.216-6.48-93.964-52.367-93.252-102.497L40.54 1l239.451 29.717c-9.944 13.703-15.835 30.64-16.103 49.537-.761 53.599 43.886 102.691 99.737 109.623 55.851 6.931 101.732-30.926 102.494-84.525.268-18.897-5.122-37.234-14.662-53.355l239.471 29.719z" fill="#fff"/><path d="M682.059 707.111c-.041 0-.082-.003-.123-.008L126.091 638.12c-52.621-6.529-94.847-52.961-94.129-103.503L39.54.986a1.002 1.002 0 0 1 1.123-.979l239.451 29.718a.998.998 0 0 1 .686 1.58c-10.154 13.992-15.657 30.923-15.913 48.964-.753 53.033 43.595 101.758 98.86 108.616 27.649 3.427 53.525-3.955 72.862-20.797 18.032-15.707 28.157-37.992 28.508-62.75.257-18.075-4.765-36.344-14.522-52.832a1 1 0 0 1 .983-1.501l239.471 29.719a1 1 0 0 1 .877 1.006l-3.242 228.294c16.035-7.235 34.287-9.837 52.896-7.527 56.246 6.98 101.38 56.608 100.613 110.629-.36 25.34-10.727 48.152-29.191 64.234-19.77 17.22-46.206 24.771-74.425 21.27-18.537-2.3-36.571-9.367-52.281-20.471l-3.237 227.967a1 1 0 0 1-1 .985zM41.523 2.13l-7.562 532.517c-.704 49.553 40.736 95.081 92.375 101.489l554.738 68.846 3.249-228.767a1 1 0 0 1 1.591-.794c15.797 11.551 34.093 18.89 52.91 21.225 27.654 3.433 53.53-3.952 72.865-20.793 18.03-15.704 28.153-37.991 28.505-62.755.753-53.032-43.595-101.758-98.859-108.616-18.797-2.33-37.208.44-53.246 8.021a1 1 0 0 1-1.427-.918l3.251-228.986L453.33 53.238c9.278 16.343 14.04 34.325 13.787 52.129-.36 25.334-10.728 48.145-29.195 64.229-19.771 17.22-46.2 24.777-74.421 21.273-56.246-6.98-101.381-56.608-100.614-110.629.253-17.869 5.544-34.681 15.318-48.737z" fill="#111"/><path d="m217.805 275.284-3.907 184.756 291.706 36.202 3.907-184.756z" fill="#fff"/><path d="M505.604 497.242c-.041 0-.082-.003-.123-.008l-291.706-36.202a1 1 0 0 1-.877-1.014l3.907-184.755a1 1 0 0 1 1.123-.971l291.706 36.202a1 1 0 0 1 .877 1.013l-3.907 184.757a1.002 1.002 0 0 1-1 .978zm-290.687-38.083 289.71 35.954 3.864-182.746-289.71-35.954z" fill="#111"/><path d="m510.479 265.714-291.706-36.202-.968 45.772 291.706 36.202z" fill="#b0c3ff"/><path d="M509.511 312.486a.847.847 0 0 1-.123-.008l-291.706-36.202a1 1 0 0 1-.877-1.013l.968-45.771a1 1 0 0 1 1.123-.971l291.706 36.202a1 1 0 0 1 .877 1.013l-.968 45.771a1 1 0 0 1-1 .979zm-290.687-38.083 289.71 35.955.925-43.761-289.71-35.955z" fill="#111"/><path d="M279.784 213.383c-5.566-.691-10.17 3.085-10.283 8.432l-.59 27.913c-.113 5.347 4.308 10.242 9.874 10.933s10.191-3.081 10.304-8.429l.59-27.913c.113-5.347-4.329-10.246-9.895-10.937" fill="#3658c1"/><path d="M280.112 261.743c-.478 0-.962-.03-1.451-.091-6.051-.75-10.874-6.109-10.75-11.946l.59-27.913c.059-2.787 1.221-5.298 3.271-7.071 2.179-1.885 5.067-2.713 8.136-2.333 6.063.752 10.895 6.113 10.771 11.95l-.59 27.913c-.059 2.78-1.22 5.287-3.27 7.06-1.838 1.59-4.18 2.431-6.707 2.431zm-1.645-47.443c-2.042 0-3.923.669-5.387 1.936-1.617 1.398-2.533 3.387-2.58 5.601l-.59 27.913c-.103 4.841 3.933 9.291 8.997 9.919 2.506.31 4.851-.352 6.603-1.868 1.616-1.398 2.532-3.383 2.578-5.589l.59-27.913c.103-4.842-3.943-9.293-9.018-9.923a9.703 9.703 0 0 0-1.194-.075z" fill="#111"/><path d="M450.467 234.565c-5.566-.691-10.17 3.085-10.283 8.432l-.59 27.913c-.113 5.347 4.308 10.242 9.874 10.933s10.17-3.084 10.283-8.431l.59-27.913c.113-5.347-4.308-10.243-9.874-10.934" fill="#3658c1"/><path d="M450.792 282.926c-.477 0-.96-.03-1.448-.091-6.051-.751-10.874-6.11-10.75-11.946l.59-27.913c.059-2.787 1.221-5.298 3.271-7.071 2.18-1.885 5.069-2.712 8.135-2.332 6.051.75 10.874 6.11 10.751 11.947l-.59 27.913c-.059 2.786-1.22 5.297-3.271 7.07-1.833 1.585-4.167 2.423-6.688 2.423zm-1.643-47.443c-2.042 0-3.921.669-5.385 1.935-1.617 1.398-2.533 3.387-2.58 5.601l-.59 27.913c-.103 4.841 3.933 9.291 8.997 9.92 2.498.309 4.836-.351 6.581-1.86 1.617-1.398 2.533-3.387 2.579-5.6l.59-27.913c.103-4.842-3.934-9.292-8.997-9.921a9.707 9.707 0 0 0-1.195-.075z" fill="#111"/><path d="m309.133 316.073-54.602-6.776-1.11 52.46 54.603 6.777z" fill="#3658c1"/><path d="M308.024 369.534c-.041 0-.082-.003-.123-.008l-54.603-6.776a1 1 0 0 1-.877-1.014l1.109-52.46a1 1 0 0 1 1.123-.971l54.603 6.776a1 1 0 0 1 .877 1.013l-1.109 52.461a.998.998 0 0 1-1 .978zm-53.583-8.657 52.607 6.528 1.067-50.451-52.607-6.529-1.067 50.451z" fill="#111"/><path d="m390.337 326.151-54.602-6.777-1.109 52.461 54.602 6.776z" fill="#3658c1"/><path d="M389.228 379.611c-.041 0-.082-.003-.123-.008l-54.603-6.776a1 1 0 0 1-.877-1.014l1.109-52.46a1 1 0 0 1 1.123-.971l54.603 6.776a1 1 0 0 1 .877 1.013l-1.109 52.461a.998.998 0 0 1-1 .978zm-53.583-8.657 52.607 6.528 1.067-50.45-52.607-6.529z" fill="#111"/><path d="m471.563 336.231-54.602-6.776-1.109 52.461 54.602 6.776z" fill="#3658c1"/><path d="M470.454 389.692c-.041 0-.082-.003-.123-.008l-54.603-6.776a1 1 0 0 1-.877-1.014l1.109-52.46a1 1 0 0 1 1.123-.971l54.603 6.776a1 1 0 0 1 .877 1.013l-1.109 52.461a.998.998 0 0 1-1 .978zm-53.583-8.657 52.607 6.528 1.067-50.451-52.607-6.529-1.067 50.451z" fill="#111"/><path d="m307.578 389.633-54.603-6.777-1.109 52.461 54.602 6.776z" fill="#3658c1"/><path d="M306.468 443.094c-.041 0-.082-.003-.123-.008l-54.603-6.776a1 1 0 0 1-.877-1.014l1.109-52.461a.998.998 0 0 1 1.123-.97l54.603 6.776a1 1 0 0 1 .877 1.014l-1.109 52.461a.998.998 0 0 1-1 .978zm-53.583-8.657 52.607 6.528 1.067-50.451-52.607-6.528z" fill="#111"/><path d="m388.782 399.711-54.603-6.777-1.109 52.461 54.602 6.776z" fill="#3658c1"/><path d="M387.672 453.172c-.041 0-.082-.003-.123-.008l-54.603-6.777a1 1 0 0 1-.877-1.014l1.109-52.46a.998.998 0 0 1 1.123-.97l54.603 6.776a1 1 0 0 1 .877 1.014l-1.109 52.461a.998.998 0 0 1-1 .978zm-53.583-8.658 52.607 6.529 1.067-50.451-52.607-6.528z" fill="#111"/><path d="m470.008 409.791-54.602-6.776-1.11 52.46 54.603 6.777z" fill="#3658c1"/><path d="M468.899 463.252c-.041 0-.082-.003-.123-.008l-54.603-6.776a1 1 0 0 1-.877-1.014l1.109-52.461a.998.998 0 0 1 1.123-.97l54.602 6.776a1 1 0 0 1 .877 1.014l-1.109 52.461a.998.998 0 0 1-1 .978zm-53.583-8.657 52.607 6.528 1.066-50.451-52.606-6.528z" fill="#111"/></svg></g><g transform="translate(2788.7999999999997 465.59999999999997) rotate(17.56707014348897 -243.5999999999999 388.20000000000005) scale(-1.2641542724885566 1.2622358352070155)"><svg width="385.396" height="615.099" viewBox="0 0 385.396 615.099"><path d="m347.634 408.376.005.011-.001-.019v.005c-1.314-46.138-4.183-71.92 1.38-95.704 2.367-8.852 6.226-16.576 12.155-28.433.14-.269.271-.536.405-.805 15.387-29.459 22.445-57.51 22.818-90.729-.104-7.454-.3-18.482-2.665-31.52-11.576-63.607-53.289-118.23-111.155-143.662C199.144-13.873 116.633.225 60.368 53.437 4.294 106.47-13.339 187.649 12.957 261.162c4.216 11.784 10.072 22.649 13.576 28.523.002-.026.005-.051.006-.078.032.055.058.111.09.166 17.264 28.705 37.727 49.454 66.248 67.188.14.091.27.184.414.274 11.044 7.22 18.221 11.916 24.709 18.371 17.604 19.661 21.375 30.682 45.511 74.486l-1.219-2.294 1.229 2.313-.01-.019c1.242 2.338 2.511 4.715 3.843 7.177l-.004-.013c6.651 12.531 15.075 21.535 27.234 29.116.082.052.161.105.245.156l.167.106c-.04-.024-.072-.051-.111-.075 5.793 3.522 16.098 5.389 30.377 4.935 35.45-1.127 81.928-16.112 103.811-33.47 4.745-3.763 7.938-7.328 9.677-10.593-.025.046-.044.091-.069.137l.079-.153.096-.187c6.66-12.68 9.373-24.692 8.778-38.852z" fill="#b0c3ff"/><g fill="#111"><path d="M221.116 492.563c-11.826 0-20.938-1.716-26.527-5.015a1.21 1.21 0 0 1-.116-.061l-.366-.232c-12.358-7.706-20.858-16.782-27.598-29.45a1074.122 1074.122 0 0 1-3.861-7.204l-.01-.019-.013-.024c-5.608-10.179-10.043-18.449-13.955-25.745-12.719-23.719-17.982-33.536-31.415-48.538-6.382-6.348-13.594-11.063-24.511-18.201a8.288 8.288 0 0 1-.263-.173l-.151-.101c-28.629-17.8-49.146-38.595-66.489-67.396a.892.892 0 0 1-.167-.206c-2.549-4.271-8.979-15.618-13.659-28.699C-1.015 225.07-3.511 186.307 4.798 149.4c8.381-37.224 27.359-70.658 54.883-96.689C116.239-.778 199.178-14.951 270.978 16.605c28.447 12.502 53.803 32.496 73.326 57.82 19.4 25.164 32.682 55.102 38.41 86.579 2.425 13.364 2.586 24.833 2.682 31.685-.375 33.44-7.447 61.562-22.931 91.206l-.116.231c-.095.19-.189.38-.288.571-5.858 11.716-9.732 19.465-12.077 28.231-4.296 18.372-3.517 37.969-2.336 67.634.327 8.241.699 17.58.989 27.76v.004l.001.01v.062l-.001.022c.59 14.323-2.154 26.439-8.893 39.274l-.179.348h-.001l-.006.011a.745.745 0 0 1-.043.071c-1.873 3.409-5.175 7.003-9.819 10.686-21.99 17.443-68.824 32.555-104.4 33.686a135.92 135.92 0 0 1-4.18.067zm-25.704-6.854c5.868 3.565 16.183 5.221 29.819 4.787 35.212-1.119 81.518-16.037 103.223-33.254 4.527-3.59 7.695-7.049 9.416-10.28h.001l.007-.014a.15.15 0 0 1 .01-.017l.038-.074.047-.093c6.579-12.531 9.25-24.357 8.662-38.345a.902.902 0 0 1 .001-.104c-.289-10.143-.66-19.455-.987-27.673-1.187-29.828-1.971-49.533 2.396-68.199 2.404-8.992 6.314-16.813 12.234-28.652l.406-.806c15.337-29.365 22.34-57.208 22.711-90.292-.095-6.765-.255-18.13-2.649-31.331-5.671-31.163-18.82-60.803-38.026-85.715-19.319-25.06-44.406-44.843-72.547-57.211C199.11-12.796 117.028 1.229 61.056 54.164c-27.234 25.757-46.014 58.841-54.307 95.675-8.226 36.537-5.753 74.915 7.149 110.986 4.516 12.623 10.689 23.619 13.317 28.051a.915.915 0 0 1 .193.237l.058.106c17.206 28.614 37.536 49.233 65.939 66.893l.416.276c11.037 7.216 18.317 11.976 24.884 18.51 13.632 15.222 18.929 25.101 31.728 48.969 3.585 6.686 7.608 14.19 12.571 23.23.066.067.124.145.171.233l1.219 2.294a1031.042 1031.042 0 0 0 3.84 7.164c6.572 12.381 14.862 21.244 26.881 28.736l.235.15.056.032.003.002.003.001zm123.553 102.385c-14.233.453-32.893 6.469-41.679 13.438-5.817 4.614-5.847 8.488-.985 10.485 14.698 5.571 38.416-.81 50.51-10.023 2.863-2.304 4.222-4.016 5.121-5.149 4.111-5.396-.9-9.135-12.967-8.751z"/><path d="M289.1 615.083c-4.757 0-9.263-.657-13.154-2.132-3.086-1.267-3.943-3.053-4.124-4.33-.34-2.406 1.289-5.056 4.843-7.874 8.915-7.071 27.877-13.196 42.269-13.654 8.061-.257 13.365 1.284 14.938 4.338.634 1.229.949 3.271-1.145 6.018-.94 1.185-2.341 2.95-5.289 5.322-9.128 6.955-24.752 12.312-38.338 12.312zm29.897-25.99c-14.028.446-32.461 6.377-41.091 13.222-2.874 2.28-4.332 4.42-4.104 6.027.194 1.375 1.673 2.254 2.878 2.749 14.367 5.445 37.639-.84 49.525-9.894 2.753-2.217 4.07-3.876 4.941-4.974 1.162-1.525 1.484-2.833.947-3.876-1.165-2.261-6.075-3.478-13.096-3.254zm-.032-.999h.01z"/></g><path d="M356.003 541.64c-5.626-2.294-14.121-3.444-25.186-3.092-12.801.407-27.154 2.764-41.105 6.44-21.858 5.76-42.732 14.761-55.112 24.581-13.394 10.624-13.498 19.551-2.561 24.088l44.138 18.309c-4.738-1.965-3.264-5.66.958-9.482 5.075-4.594 14.405-8.153 23.873-10.648 6.043-1.593 12.261-2.614 17.806-2.79 4.793-.152 8.473.346 10.91 1.34 3.687 1.504 4.681 3.189 2.232 6.427l28.85-38.136c5.653-7.475 3.708-13.566-4.803-17.037z" fill="#3658c1"/><path d="M276.176 612.966a.996.996 0 0 1-.383-.077l-44.138-18.309c-4.983-2.067-7.89-5.109-8.405-8.798-.697-4.999 3.012-10.877 10.728-16.997 11.993-9.513 32.732-18.77 55.479-24.765 14.562-3.838 28.854-6.076 41.328-6.473 10.833-.344 19.675.751 25.597 3.166 4.627 1.887 7.43 4.508 8.331 7.791.892 3.244-.155 6.87-3.109 10.775l-28.845 38.129-.005.007a1 1 0 0 1-1.595-1.207c.903-1.194 1.272-2.124 1.097-2.764-.197-.718-1.148-1.416-2.908-2.134-2.382-.971-6.02-1.409-10.5-1.266-5.298.168-11.378 1.122-17.584 2.757-7.686 2.026-17.994 5.478-23.457 10.422-2.522 2.283-3.78 4.3-3.542 5.677.146.846.915 1.564 2.286 2.135l.01.004a1.003 1.003 0 0 1-.385 1.927zm58.447-73.48c-1.229 0-2.486.02-3.774.061-12.327.392-26.464 2.608-40.883 6.408-22.492 5.927-42.958 15.048-54.746 24.398-7.129 5.655-10.583 10.895-9.988 15.154.52 3.724 4.196 5.985 7.189 7.227l39.876 16.541a.287.287 0 0 1-.005-.031c-.37-2.137 1.033-4.661 4.171-7.501 5.761-5.215 16.389-8.791 24.289-10.874 6.35-1.673 12.585-2.649 18.029-2.822 4.774-.151 8.682.337 11.32 1.413 1.49.608 3.231 1.486 3.908 2.98l25.997-34.366c2.561-3.384 3.494-6.425 2.776-9.039-.728-2.652-3.136-4.828-7.158-6.469-4.972-2.028-12.181-3.08-21.001-3.08z" fill="#111"/><path d="M232.161 593.708c-5.706-2.478-13.66-7.012-16.844-17.732-1.367-5.036 2.119-11.397 11.009-18.448 21.974-17.43 68.646-32.477 104.243-33.609 21.197-.674 33.688 3.738 35.685 11.098 2.659 10.732-1.787 18.579-5.363 23.547 9.371-12.253-2.191-20.902-30.075-20.015-32.857 1.045-75.935 14.934-96.217 31.022-13.444 10.662-13.499 19.616-2.438 24.137" fill="#111"/><path d="M232.161 594.708a.987.987 0 0 1-.378-.075 23.538 23.538 0 0 1-1.723-.783c-5.677-2.713-12.708-7.507-15.703-17.59-1.538-5.669 2.388-12.41 11.347-19.516 22.082-17.515 69.109-32.689 104.832-33.825 21.079-.67 34.458 3.643 36.683 11.836 2.437 9.834-.839 17.297-4.178 22.441a22.347 22.347 0 0 1-1.356 1.975 1 1 0 0 1-1.606-1.191c.438-.609.891-1.263 1.341-1.962 1.85-3.099 2.172-5.86.954-8.23-2.928-5.694-14.721-8.775-31.525-8.24-32.622 1.037-75.521 14.857-95.629 30.806-7.139 5.663-10.593 10.908-9.986 15.17.442 3.114 3.093 5.206 5.719 6.537.552.263 1.089.506 1.607.731a1 1 0 0 1-.399 1.916zm102.526-69.857c-1.327 0-2.688.022-4.086.066-35.358 1.124-81.857 16.104-103.654 33.393-8.164 6.477-11.952 12.657-10.665 17.403 1.55 5.216 4.289 8.915 7.334 11.606a8.4 8.4 0 0 1-.362-1.515c-.711-5.004 2.997-10.889 10.725-17.018 20.394-16.176 63.821-30.189 96.807-31.238 18.139-.577 29.981 2.735 33.368 9.325.297.577.558 1.245.727 2.001 1.233-3.827 1.705-8.368.404-13.618-1.792-6.594-13.122-10.405-30.598-10.405z" fill="#111"/><path d="M340.042 439.664c-.47-1.709-1.509-3.258-3.094-4.62-5.199-4.467-16.278-6.921-32.437-6.407-18.045.574-38.947 4.738-58.008 10.978-18.386 6.019-35.058 13.969-45.803 22.491-8.838 7.01-12.313 13.335-10.98 18.311l25.58 95.496c-1.338-4.996 2.151-11.348 11.025-18.387 10.789-8.558 27.531-16.541 45.993-22.585 19.141-6.266 40.13-10.448 58.25-11.024 16.226-.516 27.35 1.948 32.571 6.434 1.592 1.367 2.635 2.923 3.107 4.639z" fill="#3658c1"/><path d="M215.299 576.914a1 1 0 0 1-.965-.742l-.002-.008-25.578-95.488c-1.498-5.596 2.418-12.288 11.325-19.353 10.469-8.304 26.845-16.351 46.112-22.658 20.016-6.552 40.716-10.469 58.287-11.028 15.789-.502 27.547 1.859 33.121 6.648 1.738 1.494 2.885 3.214 3.406 5.113l26.205 95.327a1 1 0 1 1-1.928.53l-.004-.013c-.418-1.511-1.357-2.901-2.791-4.133-5.216-4.482-16.548-6.681-31.888-6.193-17.46.555-38.048 4.453-57.971 10.975-19.128 6.262-35.353 14.224-45.684 22.418-8.149 6.465-11.942 12.623-10.682 17.342l.001.003a1 1 0 0 1-.964 1.26zm93.333-147.344c-1.328 0-2.692.022-4.089.066-17.388.553-37.889 4.434-57.729 10.929-19.049 6.236-35.205 14.164-45.493 22.325-8.116 6.438-11.894 12.571-10.636 17.269l24.043 89.757c1.458-4.099 5.155-8.556 10.976-13.172 10.512-8.338 26.956-16.418 46.303-22.752 20.1-6.58 40.886-10.512 58.529-11.073 15.782-.501 27.54 1.843 33.17 6.603l-24.628-89.592c-.415-1.509-1.351-2.897-2.781-4.126-4.72-4.055-14.461-6.234-27.665-6.234z" fill="#111"/></svg></g><g transform="translate(192.0 1315.2) rotate(8.878753938479422 266.4 207.0) scale(1.0612911578989304 1.06381885272019)"><svg width="502.03" height="389.164" viewBox="0 0 502.03 389.164"><path d="m501.03 292.36-25.828 31.199-86.053-7.382 25.828-31.198z" fill="#3658c1"/><path d="m475.202 324.559-.086-.003-86.054-7.382a1 1 0 0 1-.685-1.634l25.828-31.198a.988.988 0 0 1 .856-.359l86.054 7.382a1 1 0 0 1 .685 1.634l-25.828 31.198a1 1 0 0 1-.77.362zm-84.065-9.215 83.629 7.174 24.276-29.324-83.629-7.174z" fill="#111"/><path d="m414.977 284.979-25.828 31.198c-22.014 24.571-51.984 44.785-88.449 57.651-109.365 38.586-235.801-3.396-282.41-93.775-29.936-58.049-19.66-121.945 20.499-170.454L64.616 78.4c-40.159 48.509-50.435 112.405-20.499 170.454 46.609 90.38 173.045 132.361 282.41 93.775 36.466-12.866 66.435-33.079 88.45-57.65" fill="#3658c1"/><path d="M216.486 389.112c-84.037 0-164.095-40.751-199.085-108.601-29.179-56.579-21.472-120.71 20.616-171.55l25.828-31.198a1 1 0 0 1 1.541 1.275l-.068.082c-41.5 50.189-49.095 113.463-20.312 169.276 46.313 89.805 172.456 131.655 281.188 93.291 35.044-12.365 65.486-32.205 88.037-57.375a1 1 0 0 1 1.515 1.306l-25.828 31.198c-22.8 25.45-53.527 45.48-88.887 57.956-27.584 9.731-56.295 14.34-84.545 14.34zM48.282 99.699l-8.724 10.537C-2.002 160.438-9.62 223.75 19.179 279.594c46.312 89.805 172.457 131.657 281.188 93.291 35.044-12.365 65.486-32.205 88.037-57.375l12.418-15c-20.602 18.413-45.814 33.132-73.961 43.062-109.645 38.684-236.878-3.601-283.631-94.26-25.119-48.705-22.9-103.011 5.052-149.613z" fill="#111"/><path d="M440.158 109.122c21.983 42.627 22.266 88.402 4.975 128.926l55.898 54.312-86.053-7.382c-22.014 24.571-51.984 44.785-88.449 57.651-109.365 38.586-235.801-3.395-282.41-93.775-46.609-90.38 4.26-194.933 113.625-233.519 109.362-38.586 235.804 3.407 282.414 93.787z" fill="#b0c3ff"/><path d="M242.314 357.913c-84.037.004-164.095-40.751-199.085-108.601-20.617-39.979-22.954-84.725-6.578-125.994 19.446-49.008 63.461-88.71 120.758-108.926 109.642-38.685 236.881 3.605 283.637 94.272 21.202 41.111 23.068 86.945 5.275 129.145l55.406 53.834a1 1 0 0 1 .212 1.133.986.986 0 0 1-.995.581l-85.557-7.339c-22.74 25.244-53.341 45.14-88.527 57.555-27.585 9.732-56.296 14.339-84.546 14.34zm-.316-355.872c-28.044 0-56.533 4.573-83.923 14.237C101.322 36.302 57.743 75.585 38.51 124.056c-16.158 40.724-13.852 84.882 6.497 124.339C91.32 338.2 217.463 380.05 326.195 341.686c35.044-12.365 65.486-32.205 88.037-57.375a.987.987 0 0 1 .83-.329l83.262 7.143-53.888-52.359a1.002 1.002 0 0 1-.223-1.11c17.841-41.814 16.085-87.298-4.944-128.075C404.62 42.392 325.289 2.041 241.998 2.041z" fill="#111"/><path d="M317.423 125.747c11.961-4.22 26.872 2.455 33.304 14.928 6.427 12.462 1.937 25.995-10.024 30.215-11.972 4.224-26.889-2.462-33.315-14.924-6.432-12.473-1.937-25.995 10.035-30.219z" fill="#fff"/><path d="M333.175 173.148c-10.485 0-21.388-6.471-26.675-16.723-3.416-6.624-3.978-13.944-1.541-20.084 2.158-5.44 6.467-9.538 12.132-11.536 12.403-4.374 27.888 2.54 34.525 15.413 3.415 6.623 3.976 13.944 1.538 20.089-2.158 5.438-6.462 9.532-12.117 11.528-2.526.89-5.181 1.313-7.862 1.313zm-15.418-46.458c-5.112 1.804-8.997 5.493-10.938 10.388-2.224 5.603-1.691 12.32 1.459 18.43 6.197 12.02 20.596 18.495 32.094 14.44 5.103-1.8 8.982-5.487 10.924-10.38 2.225-5.607 1.694-12.326-1.456-18.434-6.2-12.02-20.591-18.498-32.083-14.444z" fill="#111"/><path d="M143.572 187.086c11.961-4.22 26.872 2.455 33.304 14.928 6.427 12.462 1.937 25.995-10.024 30.215-11.972 4.224-26.889-2.462-33.316-14.924-6.432-12.474-1.936-25.995 10.036-30.219z" fill="#fff"/><path d="M159.323 234.486c-10.485 0-21.388-6.471-26.675-16.723-3.416-6.624-3.978-13.945-1.541-20.085 2.159-5.44 6.468-9.537 12.132-11.536 12.403-4.375 27.887 2.54 34.526 15.412 3.415 6.623 3.975 13.945 1.536 20.09-2.157 5.438-6.461 9.532-12.116 11.527-2.526.892-5.18 1.315-7.862 1.315zm-8.185-47.666c-2.47 0-4.91.389-7.233 1.209-5.111 1.804-8.996 5.492-10.938 10.387-2.224 5.603-1.691 12.321 1.459 18.431 6.198 12.019 20.597 18.497 32.094 14.439 5.103-1.8 8.982-5.486 10.924-10.379 2.225-5.607 1.694-12.327-1.455-18.435-4.946-9.589-15.108-15.652-24.851-15.652zm-7.566.266h.01z" fill="#111"/><path d="M230.498 156.416c11.961-4.22 26.872 2.455 33.304 14.928 6.427 12.462 1.937 25.995-10.024 30.215-11.972 4.224-26.889-2.462-33.315-14.924-6.433-12.473-1.937-25.995 10.035-30.219z" fill="#fff"/><path d="M246.249 203.817c-10.486 0-21.388-6.471-26.675-16.723-3.416-6.624-3.978-13.944-1.541-20.084 2.158-5.44 6.467-9.538 12.132-11.536 12.399-4.376 27.888 2.539 34.525 15.413 3.415 6.623 3.976 13.944 1.537 20.089-2.157 5.438-6.461 9.532-12.116 11.527-2.526.891-5.181 1.314-7.862 1.314zm-15.418-46.458c-5.112 1.804-8.997 5.493-10.938 10.388-2.224 5.603-1.691 12.321 1.459 18.43 6.197 12.019 20.596 18.496 32.094 14.439 5.103-1.8 8.982-5.486 10.924-10.379 2.225-5.607 1.694-12.326-1.456-18.434-6.198-12.018-20.591-18.498-32.083-14.444z" fill="#111"/></svg></g></svg>